<?xml version="1.0" standalone="no"?>
<!DOCTYPE svg PUBLIC "-//W3C//DTD SVG 1.1//EN" "http://www.w3.org/Graphics/SVG/1.1/DTD/svg11.dtd" >
<svg xmlns="http://www.w3.org/2000/svg">
<metadata></metadata>
<defs>
<font id="alegreya_sansmedium" horiz-adv-x="1100" >
<font-face units-per-em="2048" ascent="1638" descent="-410" />
<missing-glyph horiz-adv-x="366" />
<glyph unicode="&#xa8;I" horiz-adv-x="639" d="M41 1816.5q0 57.5 33.5 91t90.5 33.5q36 0 62 -14t39.5 -40.5t13.5 -63.5q0 -58 -32.5 -91.5t-89.5 -33.5t-87 30.5t-30 88zM197 0l16 442l-16 1031h243l-13 -1009l9 -464h-239zM357 1817q0 28 9 51t25 39t39 25t52 9q55 0 84.5 -31t29.5 -87q0 -59 -32 -92t-89 -33 q-38 0 -64.5 14t-40 40.5t-13.5 64.5z" />
<glyph unicode="&#xa8;O" horiz-adv-x="1464" d="M78 722q0 370 176 569.5t501 199.5q304 0 468.5 -188.5t164.5 -536.5q0 -377 -176 -581.5t-501 -204.5q-303 0 -468 193.5t-165 548.5zM321 753q0 -302 99.5 -442.5t308.5 -140.5t311 134.5t102 417.5q0 298 -100 436t-311 138q-210 0 -310 -131.5t-100 -411.5zM427 1817 q0 57 33.5 90.5t90.5 33.5q55 0 84.5 -31t29.5 -87q0 -39 -14.5 -67t-42 -43t-65.5 -15q-57 0 -86.5 30.5t-29.5 88.5zM803 1816.5q0 57.5 33 91t90 33.5q55 0 85.5 -31t30.5 -87q0 -29 -8.5 -52.5t-24 -39.5t-38.5 -24.5t-51 -8.5q-57 0 -87 30.5t-30 88z" />
<glyph unicode="&#xb4;Y" horiz-adv-x="1239" d="M26 1473h252l29 -92l294 -617h18l322 612l36 97h251l-515 -957l-2 -94l9 -422h-238l15 422l-2 92zM399 1760q321 166 454 245l23 -5l63 -140l-11 -23q-151 -66 -464 -187l-26 9z" />
<glyph unicode="&#xa8;i" horiz-adv-x="561" d="M7 1401q0 57 33.5 90.5t90.5 33.5q28 0 49.5 -8t35.5 -23t21.5 -36.5t7.5 -49.5q0 -59 -32 -92.5t-89 -33.5t-87 31t-30 88zM162 0l15 442l-12 600l234 20l-18 -598l15 -464h-234zM324 1401q0 38 14.5 66t42.5 43t66 15q55 0 85 -30.5t30 -86.5q0 -59 -32.5 -92.5 t-89.5 -33.5t-86.5 31t-29.5 88z" />
<glyph unicode="&#xa8;o" horiz-adv-x="1127" d="M85 512q0 272 127.5 419.5t365.5 147.5q222 0 343 -139.5t121 -394.5q0 -272 -128.5 -418.5t-365.5 -146.5q-147 0 -251 62t-158 181.5t-54 288.5zM259 1401q0 57 33.5 90.5t90.5 33.5q55 0 84.5 -30.5t29.5 -86.5q0 -59 -32 -92.5t-89 -33.5q-38 0 -64 14t-39.5 40.5 t-13.5 64.5zM302 562q0 -216 65 -319t195 -103t194.5 86.5t64.5 266.5q0 144 -29 238t-86 139t-144 45q-260 0 -260 -353zM635 1401q0 57 33.5 90.5t90.5 33.5q37 0 62.5 -14t39 -40t13.5 -63q0 -59 -32 -92.5t-89 -33.5q-38 0 -64.5 14t-40 40.5t-13.5 64.5z" />
<glyph unicode="&#xb4;y" horiz-adv-x="996" d="M-50 -293l9 24q160 31 263.5 93.5t178.5 175.5l-390 1053l228 11l34 -149l224 -667h17l224 645l37 164h209l-362 -1002q-74 -208 -199 -321t-345 -172h-21q-62 59 -107 145zM317 1285q235 190 392 339l22 -2l88 -125l-5 -22q-181 -132 -415 -284l-23 2z" />
<glyph unicode="&#xfb01;" horiz-adv-x="1309" d="M74 917l11 136h156l-2 116q0 229 113 337.5t350 108.5q142 0 300 -44l-28 -188l-24 -9q-55 25 -99 40.5t-88 24t-87 8.5q-110 0 -162.5 -56t-52.5 -176l-2 -162h555l131 18l18 -9l-16 -598l13 -464h-234l17 442l-9 462h-477l-8 -438l17 -466h-234l13 445l-4 459h-158z " />
<glyph unicode="&#xfb02;" horiz-adv-x="1348" d="M74 917l11 136h154l-3 144q-1 106 30 188t90.5 136t146 82t197.5 28q131 0 291 -35l186 15l-19 -1145l17 -466h-234l15 445l-11 963q-146 56 -260 56q-220 0 -224 -232l-2 -179h268l9 -16l-14 -133h-265l-8 -443l17 -461h-234l13 442l-4 462h-158z" />
<glyph horiz-adv-x="2048" />
<glyph horiz-adv-x="2048" />
<glyph unicode="&#xd;" horiz-adv-x="2048" />
<glyph unicode=" "  horiz-adv-x="366" />
<glyph unicode="&#x09;" horiz-adv-x="366" />
<glyph unicode="&#xa0;" horiz-adv-x="366" />
<glyph unicode="!" horiz-adv-x="595" d="M144 114.5q0 60.5 36.5 97t97.5 36.5q58 0 89.5 -33.5t31.5 -92.5q0 -62 -34.5 -98.5t-93.5 -36.5q-60 0 -93.5 33.5t-33.5 94zM204 1482l21 28l184 11l27 -30l-64 -972l-136 -19l-25 28z" />
<glyph unicode="&#x22;" horiz-adv-x="710" d="M127 996l2 458l178 14l17 -19l-65 -453l-115 -17zM418 996l4 458l179 14l16 -19l-66 -453l-115 -17z" />
<glyph unicode="#" horiz-adv-x="1212" d="M46 449l11 124h241l55 255h-213l-16 16l12 124h247l74 349h132l17 -21l-70 -328h241l74 349h133l16 -21l-69 -328h223l13 -16l-11 -124h-254l-55 -255h226l17 -15l-11 -125h-263l-75 -359h-135l-15 18l74 341h-243l-76 -359h-138l-11 18l74 341h-209zM451 573h241l56 255 h-241z" />
<glyph unicode="$" horiz-adv-x="1011" d="M99 59l25 197l25 13q54 -51 124 -85t138 -44l27 363q-38 16 -64.5 27.5t-61 30.5t-58.5 36.5t-49 42t-40 51t-24.5 60.5t-9.5 72q0 130 96.5 222t260.5 109l24 321h114l24 -21l-24 -298q119 -11 230 -55l-33 -184l-31 -6q-85 65 -177 87l-28 -348q52 -22 88.5 -40 t80 -47.5t70 -60.5t44.5 -75.5t18 -96.5q0 -81 -39 -151.5t-121 -121.5t-194 -66l-22 -293h-116l-17 20l20 271q-163 11 -300 70zM324 851q0 -24 9.5 -45t27.5 -38.5t40.5 -31.5t53.5 -29l22 295q-72 -12 -112.5 -56t-40.5 -95zM545 140q45 11 79.5 35t53 55.5t18.5 65.5 q0 46 -33 81t-94 65z" />
<glyph unicode="%" horiz-adv-x="1917" d="M83 1062q0 137 41.5 232t122 143.5t195.5 48.5q160 0 245.5 -102.5t85.5 -293.5q0 -208 -90.5 -316.5t-264.5 -108.5q-162 0 -248.5 103t-86.5 294zM239 1079q0 -133 46.5 -198t143.5 -65q190 0 190 250q0 258 -192 258q-188 0 -188 -245zM324 -119l1075 1681l98 -60 l17 -34l-1076 -1676l-103 59zM1142 388q0 102 24 181t69.5 132.5t112.5 81t154 27.5q79 0 141 -26.5t104 -76.5t63.5 -124.5t21.5 -169.5q0 -207 -90.5 -315.5t-264.5 -108.5q-162 0 -248.5 103t-86.5 296zM1300 401q0 -133 46 -197t142 -64q191 0 191 250q0 130 -48 193.5 t-145 63.5q-94 0 -140 -61t-46 -185z" />
<glyph unicode="&#x26;" horiz-adv-x="1607" d="M119 390q0 251 264 385v11q-81 81 -118.5 161.5t-37.5 173.5q0 112 52 193.5t154.5 126.5t247.5 45q204 0 367 -75l-52 -172h-33q-142 83 -287 83q-120 0 -183.5 -56t-63.5 -158q0 -66 31.5 -122t108.5 -121l519 -462q26 76 26 173q0 127 -52 234h-154l-11 15l18 149h659 l13 -15l-16 -149h-335l-6 -18q41 -123 41 -244q0 -142 -56 -261l304 -269v-16q-65 -68 -131 -105l-16 2l-264 239q-170 -156 -454 -156q-159 0 -280 48.5t-188 141.5t-67 218zM321 427q0 -133 95.5 -206.5t259.5 -73.5q190 0 306 101l-496 448q-79 -48 -122 -116.5 t-43 -152.5z" />
<glyph unicode="'" horiz-adv-x="416" d="M127 996l2 458l178 14l17 -19l-65 -453l-115 -17z" />
<glyph unicode="(" horiz-adv-x="666" d="M177 585q2 351 89 569.5t285 364.5h22l83 -76v-21q-103 -86 -166.5 -200t-93.5 -268t-31 -367q1 -206 31 -355.5t93 -260.5t167 -198v-21l-83 -73h-22q-198 144 -285 355.5t-89 550.5z" />
<glyph unicode=")" horiz-adv-x="666" d="M11 -227q104 86 167 200t93 268t31 367q-1 307 -68.5 496t-222.5 318v21l83 76h22q199 -146 286 -358t89 -551q-2 -351 -89.5 -569t-285.5 -362h-22l-83 73v21z" />
<glyph unicode="*" horiz-adv-x="866" d="M74 1351q0 96 22 159l16 4l230 -144l-12 -85l-21 -9zM124 1023v19l200 188l75 -39l2 -24l-132 -215q-51 14 -145 71zM367 1665q67 25 156 25l11 -16l-59 -277l-87 -9l-14 15zM442 1177l63 55l23 -2l146 -210q-30 -49 -107 -114l-22 5zM500 1353l10 21l231 88 q47 -70 73 -143l-11 -14l-264 -29z" />
<glyph unicode="+" d="M64 539l12 144h394v396l145 13l16 -19v-390h389l17 -15l-12 -145h-394v-394l-143 -13l-18 17v390h-389z" />
<glyph unicode="," horiz-adv-x="524" d="M85 -186q126 101 126 212q0 70 -71 121v21q84 54 167 75q98 -71 98 -172q0 -170 -243 -344l-75 69z" />
<glyph unicode="-" horiz-adv-x="701" d="M64 479v147l551 81l20 -19v-147l-550 -82z" />
<glyph unicode="." horiz-adv-x="524" d="M133 114q0 40 16 70.5t46.5 47t71.5 16.5q58 0 89.5 -33.5t31.5 -92.5q0 -62 -35 -98.5t-94 -36.5q-61 0 -93.5 33t-32.5 94z" />
<glyph unicode="/" horiz-adv-x="655" d="M30 -241l470 1799h159l17 -24l-470 -1795h-162z" />
<glyph unicode="0" horiz-adv-x="1204" d="M99 556q0 290 136 449.5t384 159.5q233 0 359.5 -150.5t126.5 -427.5q0 -289 -134 -447t-382 -158q-234 0 -362 150t-128 424zM282 571q0 -383 322 -383q158 0 239 93.5t81 278.5q0 195 -82 292.5t-241 97.5q-319 0 -319 -379z" />
<glyph unicode="1" horiz-adv-x="804" d="M22 830v186l494 144l35 -24l-15 -661l12 -475h-236l14 449l-2 446l-280 -79z" />
<glyph unicode="2" horiz-adv-x="1059" d="M101 4v145l315 330q78 85 126 145.5t75 115t27 98.5q0 54 -41 88.5t-115 34.5q-78 0 -158.5 -38.5t-150.5 -108.5h-26l-39 182q211 164 425 164q146 0 240.5 -72.5t94.5 -192.5q0 -93 -63.5 -205t-202.5 -268l-205 -232l6 -11h373l200 18l16 -16l-30 -192l-252 11h-519 l-85 -4z" />
<glyph unicode="3" horiz-adv-x="963" d="M64 1023q182 140 385 140q167 0 269.5 -83t102.5 -218q0 -61 -22 -120t-74 -117.5t-129 -99.5v-9q131 -34 198.5 -111t67.5 -192q0 -128 -67 -226.5t-191 -153t-285 -54.5q-102 0 -236 22l-12 192l16 16q117 -50 243 -50q142 0 226 63t84 173q0 95 -66 148t-193 58h-145 l-13 17l7 160l100 2q60 0 118 28.5t97.5 83t39.5 120.5q0 75 -49.5 117.5t-132.5 42.5q-69 0 -135 -31t-144 -94h-25z" />
<glyph unicode="4" horiz-adv-x="1123" d="M55 172v152l571 825h216l-8 -812h208l13 -20l-11 -166l-206 5l9 -346l-15 -18l-178 -15l-14 17l7 362h-404l-172 -5zM259 337h391v539h-19z" />
<glyph unicode="5" horiz-adv-x="969" d="M59 -2l19 18q130 -57 261 -57q142 0 226.5 71.5t84.5 187.5q0 93 -63 147t-206 80l-204 39l-19 21l12 619l32 32l126 -7h319l224 11l15 -15l-26 -184l-16 -16l-188 16h-308l-6 -314l142 -30q107 -22 182 -56t119 -80t64 -101.5t20 -125.5q0 -140 -71.5 -249.5 t-199.5 -169.5t-291 -60q-89 0 -231 26z" />
<glyph unicode="6" horiz-adv-x="1088" d="M94 486q0 288 175.5 517t496.5 362h14l174 -106v-23q-263 -93 -410 -210t-202 -280l15 -19q127 85 271 85q87 0 157.5 -29.5t117.5 -81.5t72 -124t25 -157q0 -92 -31 -172t-88.5 -140t-146 -94t-198.5 -34q-217 0 -329.5 132.5t-112.5 373.5zM305 491q0 -179 59 -266 t189 -87q112 0 175.5 64.5t63.5 185.5q0 81 -27 139t-78.5 87.5t-124.5 29.5q-126 0 -255 -99z" />
<glyph unicode="7" horiz-adv-x="972" d="M44 959l15 199l228 -9h516l103 5l2 -172l-417 -914l-112 -300l-189 51l-13 39l511 1098h-440l-191 -20z" />
<glyph unicode="8" horiz-adv-x="1105" d="M103 328q0 65 21 120t60 96t81.5 70t97.5 56v11q-44 23 -78 49.5t-65.5 64t-49 89.5t-17.5 114q0 168 116 265t304 97q176 0 275.5 -87t99.5 -238q0 -58 -17 -107.5t-48 -89t-66 -69t-81 -58.5v-11q35 -17 61.5 -32t58 -37t53.5 -47.5t41 -56.5t29 -71t10 -86 q0 -178 -127.5 -283t-338.5 -105q-197 0 -308.5 95.5t-111.5 250.5zM300 355q0 -96 65.5 -153.5t177.5 -57.5q77 0 134.5 27.5t87 74.5t29.5 107q0 108 -111 176q-44 27 -155 72q-33 -12 -59 -23.5t-53 -27.5t-47 -35t-36 -42.5t-24.5 -53t-8.5 -64.5zM346 1005 q0 -28 6.5 -52t17 -43.5t27.5 -37t35 -30.5t42 -26t45.5 -22.5t49.5 -20.5q44 20 75 40t60.5 48t44.5 66t15 84q0 86 -54 135t-148 49q-101 0 -158.5 -51t-57.5 -139z" />
<glyph unicode="9" horiz-adv-x="1088" d="M90 731q0 93 31 173t88.5 140t146 94.5t197.5 34.5q217 0 330 -133t113 -375q0 -288 -175.5 -516.5t-496.5 -361.5h-15l-173 105v23q176 63 297.5 134.5t199.5 159t115 196.5l-17 19q-126 -85 -270 -85q-69 0 -128.5 19t-104 54t-76 83t-47 108t-15.5 128zM298 764 q0 -124 59.5 -190.5t170.5 -66.5q125 0 254 99l2 55q0 179 -58.5 266t-189.5 87q-111 0 -174.5 -65t-63.5 -185z" />
<glyph unicode=":" horiz-adv-x="524" d="M124 114q0 30 9 55t26 42.5t42 27t55 9.5q39 0 66.5 -15.5t42 -43.5t14.5 -67q0 -62 -35.5 -98.5t-95.5 -36.5q-59 0 -91.5 33.5t-32.5 93.5zM124 725q0 62 35.5 98.5t96.5 36.5q59 0 91 -33.5t32 -92.5q0 -42 -16 -72t-45.5 -46.5t-69.5 -16.5q-30 0 -53 8.5t-38.5 25 t-24 39.5t-8.5 53z" />
<glyph unicode=";" horiz-adv-x="524" d="M76 -186q126 103 126 212q0 67 -71 121v21q84 54 167 75q98 -71 98 -172q0 -170 -243 -344l-77 69v18zM124 725q0 62 35.5 98.5t96.5 36.5q59 0 91 -33.5t32 -92.5q0 -42 -16 -72t-45.5 -46.5t-69.5 -16.5q-30 0 -53 8.5t-38.5 25t-24 39.5t-8.5 53z" />
<glyph unicode="&#x3c;" d="M81 507v191l18 22l866 348l51 -132l-11 -21l-751 -300v-14l755 -284l-35 -133l-22 -16z" />
<glyph unicode="=" d="M64 337l12 145h944l17 -16l-12 -145h-944zM64 741l12 142h944l17 -16l-12 -142h-944z" />
<glyph unicode="&#x3e;" d="M85 936l51 132l866 -348l18 -22v-191l-871 -339l-22 16l-35 133l755 284v14l-751 300z" />
<glyph unicode="?" horiz-adv-x="768" d="M127 1381l43 131l25 11q285 -15 441 -110t156 -255q0 -91 -52 -170.5t-149 -138.5l-178 -115l-4 -9l13 -211l-166 -21l-17 19l-18 268l11 23l213 119q135 78 135 199q0 105 -106.5 164t-331.5 72zM216 114q0 61 35 97.5t95 36.5q59 0 91.5 -33.5t32.5 -92.5 q0 -62 -35 -98.5t-96 -36.5q-60 0 -91.5 33t-31.5 94z" />
<glyph unicode="@" horiz-adv-x="1909" d="M76 427q0 144 32 276t91.5 242.5t147 200.5t196 152.5t241.5 96.5t280 34q176 0 322.5 -52t248.5 -146.5t158 -231t56 -301.5q0 -330 -210.5 -511.5t-603.5 -193.5l59 425h-26q-164 -278 -327 -436h-37q-68 33 -112.5 84.5t-65.5 121t-21 160.5q0 93 21 185t65 179 t107 158t153 122.5t197 71.5h12l157 -50l131 52l26 -11l-115 -801l-5 -94q207 28 322.5 167.5t115.5 362.5q0 133 -46 243.5t-129.5 188t-206 118.5t-271.5 38q-179 -3 -330 -65t-255 -170t-162 -259t-58 -327q0 -183 63 -331.5t177 -248.5t276.5 -153.5t359.5 -53.5l9 -23 l-68 -113q-219 3 -399 64.5t-308 174.5t-198 280t-70 374zM700 416q0 -59 5.5 -101t15 -64.5t20.5 -32.5t23 -10q13 0 35 16.5t50.5 48t64 82t73.5 113t80.5 147.5t81.5 179l2 18l3 30l-147 55q-95 0 -165.5 -64.5t-106 -173t-35.5 -243.5z" />
<glyph unicode="A" horiz-adv-x="1346" d="M26 0l525 1473h277l475 -1473h-243l-35 165l-64 205l-311 6l-283 -6l-69 -193l-37 -177h-235zM433 562l232 -4l237 4l-212 679h-16z" />
<glyph unicode="B" horiz-adv-x="1270" d="M197 0l16 442l-16 1031l459 2q85 0 155.5 -14.5t125 -44.5t92 -73t57 -101.5t19.5 -129.5q0 -123 -57 -212t-162 -134q154 -33 228 -120t74 -233q0 -422 -630 -422q-218 0 -359 9h-2zM424 464l7 -283q89 -6 165 -6q170 0 262 64.5t92 187.5q0 67 -29 115t-85 76.5 t-140 40.5l-269 -3zM429 840l236 -8q100 25 148.5 86t48.5 167q0 111 -62 158.5t-209 47.5h-155z" />
<glyph unicode="C" horiz-adv-x="1189" d="M78 722q0 368 176 567t496 199q224 0 397 -100l-44 -209l-22 -6q-151 118 -340 118q-203 0 -309 -136.5t-106 -406.5q0 -278 107.5 -422.5t307.5 -144.5q65 0 129 14.5t124.5 43t113.5 68.5l23 -14l-19 -215q-198 -96 -390 -96q-310 0 -477 192t-167 548z" />
<glyph unicode="D" horiz-adv-x="1490" d="M197 0l16 442l-16 1031h2l558 9q317 0 486.5 -179t169.5 -513q0 -389 -186.5 -596t-534.5 -207q-222 0 -493 13h-2zM427 464l6 -274q181 -15 301 -15q210 0 321.5 139t111.5 422t-106 418t-323 135q-125 0 -300 -9z" />
<glyph unicode="E" horiz-adv-x="1130" d="M197 0l16 442l-16 1031h874l14 -21l-19 -181l-348 9l-280 -2l-7 -429l267 -5l243 7l15 -19l-17 -180l-260 7l-250 -5l-2 -190l6 -271l280 -3l355 12l15 -21l-17 -181h-869z" />
<glyph unicode="F" horiz-adv-x="1015" d="M197 0l16 442l-16 1031h823l17 -21l-19 -186l-344 14l-236 -2l-7 -464l232 -4l243 6l16 -20l-18 -179l-262 7l-213 -2l-2 -158l11 -464h-241z" />
<glyph unicode="G" horiz-adv-x="1373" d="M78 704q0 191 49.5 338.5t143.5 246t231.5 149t313.5 50.5q230 0 432 -98l-48 -221l-25 -2q-114 67 -205 95.5t-193 28.5q-228 0 -340.5 -138.5t-112.5 -436.5q0 -284 105.5 -411.5t334.5 -127.5q39 0 75 4.5t78.5 14t100.5 27.5l7 149l-7 219l223 17l-5 -199l7 -338 q-283 -89 -493 -89q-169 0 -297 48.5t-210.5 141.5t-123.5 226.5t-41 305.5z" />
<glyph unicode="H" horiz-adv-x="1578" d="M197 0l16 442l-16 1031h243l-9 -631l359 -8l357 8l-9 631h243l-13 -1009l8 -464h-238l16 442l-3 200l-380 8l-342 -8l-2 -178l11 -464h-241z" />
<glyph unicode="I" horiz-adv-x="639" d="M197 0l16 442l-16 1031h243l-13 -1009l11 -464h-241z" />
<glyph unicode="J" horiz-adv-x="735" d="M13 1305l15 168h511l-14 -987l5 -213q0 -179 -93.5 -294.5t-322.5 -217.5l-82 131v25q154 79 217 157.5t63 198.5v191l-10 825l-267 -2z" />
<glyph unicode="K" horiz-adv-x="1288" d="M195 0l16 442l-16 1031h243l-14 -1009l12 -464h-241zM445 768v14l461 558l87 133h261l-564 -693q276 -371 608 -730l-4 -28q-109 -28 -230 -42l-25 13q-362 440 -594 775z" />
<glyph unicode="L" horiz-adv-x="969" d="M190 0l16 442l-16 1031h243l-13 -1009l4 -267h526l15 -20l-17 -177h-758z" />
<glyph unicode="M" horiz-adv-x="1816" d="M122 0l154 1473h269l70 -221l282 -782h18l298 789l69 214h268l140 -1473h-210l-31 447l-68 665h-16l-378 -950h-188l-352 950h-20l-70 -644l-36 -468h-199z" />
<glyph unicode="N" horiz-adv-x="1578" d="M197 0l16 436l-11 1037h253l692 -1103h18l-7 1092l223 15l-16 -1037l9 -440h-255l-690 1103h-18l-2 -610l11 -493h-223z" />
<glyph unicode="O" horiz-adv-x="1464" d="M78 722q0 370 176 569.5t501 199.5q304 0 468.5 -188.5t164.5 -536.5q0 -377 -176.5 -581.5t-500.5 -204.5q-303 0 -468 193.5t-165 548.5zM321 753q0 -302 99.5 -442.5t308.5 -140.5q210 0 311.5 134.5t101.5 417.5q0 298 -99.5 436t-308.5 138q-211 0 -312 -132 t-101 -411z" />
<glyph unicode="P" horiz-adv-x="1224" d="M197 0l16 442l-16 1031l501 2q147 0 250.5 -50.5t157.5 -149.5t54 -240q0 -249 -152.5 -393.5t-418.5 -144.5h-162v-33l11 -464h-241zM429 685l230 -4q126 24 191 108t65 225q0 137 -70 203.5t-212 71.5l-195 -7z" />
<glyph unicode="Q" horiz-adv-x="1473" d="M78 722q0 370 176 569.5t501 199.5q304 0 468.5 -188.5t164.5 -540.5q0 -284 -105 -473t-301 -263q323 -214 692 -287l9 -28q-48 -95 -107 -151l-20 -9q-442 136 -790 431l-50 -2q-206 0 -349 87t-216 253t-73 402zM321 746q0 -296 101 -436t312 -140q204 0 306 136.5 t102 422.5q0 292 -100.5 429.5t-310.5 137.5t-310 -132.5t-100 -417.5z" />
<glyph unicode="R" horiz-adv-x="1307" d="M197 0l16 442l-16 1031l501 2q147 0 251 -49t159 -145.5t55 -234.5q0 -147 -76.5 -265.5t-215.5 -191.5q149 -241 370 -534l-2 -27q-109 -38 -228 -48l-27 18q-204 335 -308 527h-249v-61l11 -464h-241zM431 718l252 -7q232 71 232 317q0 129 -70.5 192.5t-211.5 68.5 l-195 -7z" />
<glyph unicode="S" horiz-adv-x="1107" d="M87 81l29 234l31 13q84 -79 186 -119.5t190 -40.5q120 0 190.5 63.5t70.5 149.5q0 41 -18.5 77t-50 62.5t-74 52t-90 46.5t-97.5 47t-97.5 51t-89.5 60t-74 74t-50.5 92.5t-18.5 116.5q0 89 37 168t102.5 136.5t160 90.5t204.5 33q175 0 349 -72l-38 -216l-37 -14 q-48 35 -99.5 60.5t-103 38.5t-98.5 13q-57 0 -104.5 -18t-78 -47.5t-47 -66t-16.5 -74.5q0 -39 18.5 -73t50.5 -60t74.5 -51.5t90 -46.5t98 -47t98 -51.5t90 -61t74.5 -75t50.5 -93t18.5 -115.5q0 -71 -23.5 -137t-69 -120t-108 -94t-144.5 -62.5t-173 -22.5 q-210 0 -413 99z" />
<glyph unicode="T" horiz-adv-x="1134" d="M44 1294l18 179h1019l13 -21l-13 -179l-267 14h-124l-11 -823l11 -464h-239l15 442l-11 845h-125l-271 -14z" />
<glyph unicode="U" horiz-adv-x="1447" d="M158 532l4 204l-4 737h234l-9 -909v-9q1 -185 83 -277q84 -94 256 -94t258 89q85 87 84 260v8l-11 932h238l-6 -748l-3 -174v-17q0 -258 -146 -402q-150 -150 -429 -150q-269 0 -411 143q-138 138 -138 389v18z" />
<glyph unicode="V" horiz-adv-x="1313" d="M28 1473h243l34 -168l337 -1075h17l374 1064l35 179h237l-521 -1473h-279z" />
<glyph unicode="W" horiz-adv-x="2057" d="M46 1473h234l25 -158l317 -1063h18l288 853l-116 368h241l37 -182l321 -1039h18l355 1048l37 173h221l-510 -1473h-247l-260 792h-16l-268 -792h-250z" />
<glyph unicode="X" horiz-adv-x="1370" d="M44 0l486 736l-475 737h287l63 -129l280 -427l287 431l61 125h254l-459 -705l494 -768h-287l-67 131l-300 451l-315 -466l-62 -116h-247z" />
<glyph unicode="Y" horiz-adv-x="1239" d="M26 1473h252l29 -92l292 -617h20l322 612l36 97h248l-514 -959l-2 -92l11 -422h-238l13 422l-2 94z" />
<glyph unicode="Z" horiz-adv-x="1228" d="M71 -7v172l789 1120h-521l-236 -19l-13 14l18 195l906 -2l124 2v-175l-785 -1114h560l232 18l11 -14l-20 -194l-296 4h-619z" />
<glyph unicode="[" horiz-adv-x="666" d="M206 -271l12 867l-12 866l441 22l12 -13v-108l-260 -30v-1477l260 -28v-108l-12 -13z" />
<glyph unicode="\" horiz-adv-x="655" d="M-2 1534l18 24h159l472 -1799l-16 -20h-161z" />
<glyph unicode="]" horiz-adv-x="666" d="M9 -172l260 30v1477l-260 28v110l11 11l441 -22l-12 -866l12 -867l-441 -22l-11 13v108z" />
<glyph unicode="^" horiz-adv-x="987" d="M44 307l348 812l24 14h190l342 -814l-20 -21l-129 -31l-287 696h-15l-300 -694l-20 -13z" />
<glyph unicode="_" horiz-adv-x="1024" d="M-35 -335l15 133h1064l16 -19l-12 -132h-1066z" />
<glyph unicode="`" horiz-adv-x="891" d="M195 1497l87 125l23 2q150 -143 393 -339l-61 -92l-22 -2q-234 152 -416 284z" />
<glyph unicode="a" horiz-adv-x="1077" d="M85 282q0 106 56 167.5t166 86.5l363 81l2 124q0 57 -19.5 95.5t-56 57.5t-89.5 19q-51 0 -103 -16t-107 -48t-118 -83l-19 11l-29 164q202 138 412 138q104 0 181 -34t119.5 -99t42.5 -154q0 -41 -14 -273.5t-14 -270.5q0 -44 14.5 -61t51.5 -17q23 0 69 9l21 -17 l-23 -127q-64 -40 -144 -51q-71 7 -115.5 51.5t-52.5 117.5h-16q-115 -122 -239 -171q-159 2 -249 82t-90 218zM293 312q0 -69 38 -108t102 -39q58 0 114 35.5t116 104.5l7 177l-298 -71q-42 -9 -60.5 -31t-18.5 -68z" />
<glyph unicode="b" horiz-adv-x="1182" d="M172 -4l16 444l-13 1152l234 19l-10 -700h14q74 62 134.5 96.5t140.5 60.5q200 0 305.5 -132.5t105.5 -373.5q0 -279 -136 -430.5t-376 -151.5q-119 0 -234 52l-145 -60zM392 468l7 -266q101 -62 197 -62q134 0 210 97q74 95 74 283v10q-3 169 -61.5 259.5t-168.5 90.5 q-123 0 -254 -136z" />
<glyph unicode="c" horiz-adv-x="882" d="M85 519q0 260 129 410t355 150q37 0 75 -4.5t74.5 -12.5t70.5 -19t62 -25l-39 -195l-22 -9q-122 72 -226 72q-122 0 -190.5 -91.5t-68.5 -258.5q0 -176 71 -273.5t202 -97.5q114 0 245 69l21 -13l-23 -189q-138 -52 -280 -52q-214 0 -335 143.5t-121 395.5z" />
<glyph unicode="d" horiz-adv-x="1191" d="M81 525q0 263 138 407t382 144q78 0 179 -19l-5 535l234 19l-18 -1145l7 -221q2 -43 14.5 -59t44.5 -16q29 0 72 9l20 -17l-20 -127q-65 -41 -147 -51q-71 7 -114.5 49.5t-55.5 110.5h-18q-69 -58 -121 -93t-117 -64q-229 0 -352 141t-123 397zM300 553q2 -182 70.5 -279 t189.5 -97q57 0 111 26.5t113 92.5l6 149l-8 417q-112 53 -204 53q-133 0 -207 -91q-71 -87 -71 -257v-14z" />
<glyph unicode="e" horiz-adv-x="1055" d="M85 523q0 256 137.5 404.5t368.5 148.5q183 0 284.5 -108t101.5 -298q0 -58 -9 -114l-40 -37h-628q4 -174 79.5 -266.5t224.5 -92.5q70 0 151 25t158 71l21 -13l-28 -186q-158 -77 -321 -77q-236 0 -368 145t-132 398zM312 661l452 11l4 28q0 108 -50.5 161.5 t-139.5 53.5q-105 0 -174 -66t-92 -188z" />
<glyph unicode="f" horiz-adv-x="720" d="M74 917l11 136h156l-2 158v7q0 189 107 292q109 105 308 105q85 0 186 -21l-15 -176l-15 -15q-100 44 -177 44q-82 0 -126 -49t-46 -148l-2 -197h270l7 -16l-14 -133h-265l-8 -438l17 -466h-234l13 445l-4 459h-158z" />
<glyph unicode="g" horiz-adv-x="1127" d="M116 -138q34 56 82.5 99.5t116.5 86.5v11q-80 27 -124 72.5t-44 120.5q59 84 146 140v11q-77 43 -117 118.5t-40 176.5q0 175 116 274t312 99q123 0 211 -38q175 27 339 79l22 -13v-154q-70 -22 -197 -43l-5 -9q43 -71 43 -177q0 -112 -52 -195.5t-150.5 -129 t-231.5 -45.5q-69 0 -140 15q-27 -23 -37.5 -40t-10.5 -37q0 -28 29 -47.5t76.5 -29t108 -19t124 -18t124 -27.5t108 -45t76.5 -73t29 -110q0 -43 -12.5 -84t-37 -76.5t-58.5 -66.5t-78 -55.5t-94 -41.5t-108 -26.5t-119 -9.5q-194 0 -300.5 85t-106.5 222zM317 -151 q0 -41 25.5 -73t79 -50.5t129.5 -18.5q121 0 199 45.5t78 118.5q0 20 -6.5 36.5t-20 29.5t-28 23t-39 18t-45 13.5t-52.5 11t-55 8.5t-59 8t-59 9q-74 -46 -110.5 -89.5t-36.5 -89.5zM342 709q0 -102 54.5 -158t156.5 -56q70 0 118.5 26t74 75.5t25.5 119.5 q0 99 -52.5 151.5t-156.5 52.5q-71 0 -120 -24t-74.5 -71.5t-25.5 -115.5z" />
<glyph unicode="h" horiz-adv-x="1201" d="M175 0l13 445l-11 1147l234 19l-12 -703h14q133 117 283 163q117 0 197 -36.5t119.5 -105.5t38.5 -167l-7 -298l11 -464h-236l15 696v11q0 50 -16 87q-18 41 -55 63.5t-91 22.5q-135 0 -276 -136l-4 -278l17 -466h-234z" />
<glyph unicode="i" horiz-adv-x="561" d="M156 1418q0 61 35.5 96.5t97.5 35.5q29 0 52 -8.5t38.5 -24.5t23.5 -39.5t8 -52.5q0 -41 -16 -72t-45 -47.5t-68 -16.5q-60 0 -93 34t-33 95zM162 0l15 442l-12 600l234 20l-18 -598l15 -464h-234z" />
<glyph unicode="j" horiz-adv-x="630" d="M7 920l11 133h212l217 9l8 -5l-17 -593l11 -414q0 -180 -78.5 -292.5t-265.5 -202.5l-85 103v25q117 66 164.5 146t47.5 212l2 401l-9 462h-203zM175 1418q0 61 35 96.5t97 35.5q29 0 52 -8.5t38.5 -24.5t23.5 -39.5t8 -52.5q0 -41 -16 -72t-45 -47.5t-68 -16.5 q-60 0 -92.5 34t-32.5 95z" />
<glyph unicode="k" horiz-adv-x="1081" d="M175 0l13 445l-11 1147l234 19l-19 -1145l17 -466h-234zM427 556v15l302 385l57 101h256l-388 -481q150 -211 412 -535v-28q-20 -5 -41 -9t-45 -7.5t-40 -6t-45.5 -6t-41.5 -4.5l-28 9q-228 295 -398 567z" />
<glyph unicode="l" horiz-adv-x="582" d="M175 0l15 445l-13 1147l234 19l-19 -1145l17 -466h-234z" />
<glyph unicode="m" horiz-adv-x="1832" d="M162 0l15 442l-12 600l223 20l-3 -154h16q135 119 282 163q128 0 212 -44t119 -128h14q136 121 303 172q117 0 197 -36.5t119.5 -105.5t38.5 -167l-7 -298l11 -464h-236l17 696q0 42 -10 76.5t-30 58.5t-51.5 36.5t-72.5 12.5q-131 0 -270 -132l-4 -284l9 -464h-234 l15 696v8q1 82 -39 128q-42 48 -123 48q-136 0 -276 -136l-2 -280l11 -464h-232z" />
<glyph unicode="n" horiz-adv-x="1191" d="M162 0l15 442l-12 600l223 20l-3 -154h16q133 117 282 163q176 0 267 -80q89 -78 89 -223v-6l-6 -298l11 -464h-236l15 696v8q1 82 -39 128q-42 48 -123 48q-136 0 -276 -136l-2 -280l13 -464h-234z" />
<glyph unicode="o" horiz-adv-x="1127" d="M85 512q0 272 127.5 419.5t365.5 147.5q222 0 343 -139.5t121 -394.5q0 -272 -128.5 -418.5t-365.5 -146.5q-147 0 -251 62t-158 181.5t-54 288.5zM302 562q0 -216 65 -319t197 -103q131 0 195 86.5t64 266.5q0 144 -29 238t-86 139t-144 45q-262 0 -262 -353z" />
<glyph unicode="p" horiz-adv-x="1169" d="M162 -424l15 866l-15 600l226 20l-3 -151h16q50 42 92.5 71t86 49.5t96.5 36.5q201 0 306.5 -133t105.5 -375q0 -279 -137 -429.5t-384 -150.5q-81 0 -179 18l6 -422h-232zM381 464l4 -274q99 -50 200 -50q134 0 209 98q73 93 73 277v15q-2 168 -61 259t-169 91 q-120 0 -254 -136z" />
<glyph unicode="q" horiz-adv-x="1169" d="M81 519q0 269 136.5 413t376.5 144q123 0 275 -43l120 40l20 -13l-18 -596l16 -888h-232l11 495v48h-20q-55 -44 -104 -73.5t-117 -58.5q-224 0 -344 140.5t-120 391.5zM300 543q2 -174 68.5 -270t182.5 -96q59 0 114.5 27t120.5 94l4 142l-8 416q-111 57 -206 57 q-133 0 -206 -93q-70 -88 -70 -263v-14z" />
<glyph unicode="r" horiz-adv-x="760" d="M162 0l17 442l-14 600l223 20l-3 -211h16q42 75 93.5 123.5t99 67t96.5 18.5q27 0 58 -5v-223l-26 -7q-44 13 -85 13q-71 0 -132.5 -53t-121.5 -170l-2 -151l15 -464h-234z" />
<glyph unicode="s" horiz-adv-x="862" d="M62 50l28 195l24 16q67 -58 147.5 -90.5t147.5 -32.5q74 0 118 40.5t44 94.5q0 35 -20.5 63.5t-53.5 48t-76 40t-87.5 39t-87 46t-76 59t-54 80.5t-20.5 108q0 140 104 229.5t282 89.5q137 0 268 -53l-32 -183l-30 -8q-122 81 -233 81q-35 0 -63.5 -10.5t-47.5 -28 t-29 -40.5t-10 -48q0 -34 20 -62t53.5 -47.5t76.5 -40t87.5 -38t87 -44.5t76 -58t54 -78.5t20.5 -105.5q0 -65 -25.5 -123.5t-73.5 -105.5t-125 -75t-173 -28q-160 0 -321 70z" />
<glyph unicode="t" horiz-adv-x="749" d="M46 917l11 136h140v168l206 77l21 -18l-4 -227h293l9 -16l-11 -133h-295l-13 -576v-5q0 -81 30 -113q31 -34 103 -33q77 0 162 41l22 -16l-22 -147q-126 -59 -234 -68q-143 22 -207 95t-64 209l9 166l-3 447h-144z" />
<glyph unicode="u" horiz-adv-x="1180" d="M151 1042l232 20l-11 -701v-8q0 -80 38 -126q40 -48 120 -48q126 0 250 117v746l222 20l-15 -817q0 -42 13.5 -58.5t47.5 -16.5q28 0 71 9l21 -17l-23 -127q-66 -41 -145 -51q-70 7 -112.5 49.5t-56.5 113.5h-19q-134 -121 -274 -160q-174 0 -265 80q-89 78 -89 223v6 l4 286z" />
<glyph unicode="v" horiz-adv-x="992" d="M41 1053l215 11l31 -156l199 -683h17l233 672l39 160h207l-374 -1057h-253z" />
<glyph unicode="w" horiz-adv-x="1570" d="M41 1053l213 11l24 -149l167 -672h16l195 661l40 153h224l25 -142l169 -672h15l195 661l36 153h200l-339 -1057h-223l-195 762h-19l-226 -762h-230z" />
<glyph unicode="x" horiz-adv-x="1022" d="M46 0l324 534l-324 517l247 13l46 -112l189 -284l176 288l55 101h209l-316 -518l337 -530l-245 -20l-52 119l-195 295l-195 -307l-48 -96h-208z" />
<glyph unicode="y" horiz-adv-x="996" d="M-50 -293l6 24q163 31 266 93.5t177 175.5l-388 1053l228 11l34 -149l222 -667h19l224 645l35 164h209l-360 -1002q-74 -208 -199 -321t-345 -172h-21q-62 59 -107 145z" />
<glyph unicode="z" horiz-adv-x="956" d="M68 133l563 769h-358l-177 -19l-13 19l16 160l208 -5h464l100 3l5 -140l-559 -764h375l184 19l14 -19l-19 -160l-236 4h-440l-124 -4z" />
<glyph unicode="{" horiz-adv-x="666" d="M94 548v115q175 38 175 190q0 47 -23 182t-23 206q0 129 72.5 196t211.5 67q43 0 130 -18l10 -18l-21 -124q-54 11 -83 11q-69 0 -101.5 -38t-32.5 -117q0 -54 25 -178.5t25 -172.5q0 -170 -157 -236v-12q77 -32 117 -93t40 -141q0 -51 -25 -175t-25 -179 q0 -81 33 -120.5t101 -39.5q29 0 83 11l21 -118l-10 -19q-58 -18 -130 -18q-139 0 -211.5 67t-72.5 196q0 71 23 205t23 180q0 78 -43 124.5t-132 66.5z" />
<glyph unicode="|" horiz-adv-x="712" d="M267 -576v1223l2 1174l162 14l16 -16l-2 -1156v-1250l-161 -12z" />
<glyph unicode="}" horiz-adv-x="666" d="M20 -254l21 121q51 -11 83 -11q135 0 135 157q0 54 -25.5 179t-25.5 173q0 83 40 143.5t117 92.5v12q-38 16 -67.5 39.5t-49.5 53t-30 64.5t-10 74q0 53 25.5 177t25.5 179q0 80 -33 118.5t-102 38.5q-32 0 -83 -11l-21 122l10 18q70 18 130 18q93 0 156.5 -29.5 t96 -88.5t32.5 -145q0 -71 -24.5 -205.5t-24.5 -179.5q0 -157 177 -191v-114q-177 -42 -177 -194q0 -45 24.5 -179.5t24.5 -205.5q0 -129 -72.5 -196t-212.5 -67q-60 0 -130 18z" />
<glyph unicode="~" d="M96 525v23l175 186l25 14q51 -9 238.5 -63t229.5 -54q7 0 14 1.5t15 6t15 8.5t16.5 12.5t16.5 14t19 17.5t19 18.5t21 21t22 22.5h23l62 -79v-22l-175 -188l-24 -9q-49 6 -151.5 35t-193 54t-121.5 25q-10 0 -19 -3t-20.5 -10t-20 -13.5t-23 -20t-23 -22t-26 -26.5 t-26.5 -27h-26z" />
<glyph unicode="&#xa1;" horiz-adv-x="595" d="M168 -422l64 973l135 18l25 -28l7 -954l-20 -27l-184 -11zM204 948q0 62 35 98.5t94 36.5q60 0 93 -34t33 -95q0 -60 -36.5 -96.5t-96.5 -36.5q-58 0 -90 33.5t-32 93.5z" />
<glyph unicode="&#xa2;" horiz-adv-x="878" d="M78 610q0 241 108.5 386t299.5 167l24 334h114l20 -20l-22 -314q123 -15 216 -71l-35 -149l-23 -4q-79 49 -167 66l-60 -769h7q131 0 259 73l21 -11l-19 -140q-127 -71 -280 -77l-27 -359h-115l-18 22l24 350q-154 36 -240.5 172t-86.5 344zM261 628q0 -131 41 -222.5 t116 -134.5l55 729q-101 -28 -156.5 -125.5t-55.5 -246.5z" />
<glyph unicode="&#xa3;" horiz-adv-x="981" d="M48 13l14 125q83 19 124 77.5t41 160.5v274h-168l-9 13l12 114h163v193q-2 189 105 291t305 102q112 0 255 -39l-14 -173l-14 -13q-131 75 -243 75q-97 0 -147 -53t-50 -158v-225h291l9 -13l-11 -114h-291v-256q0 -79 -22.5 -132t-69.5 -92v-8h357l221 17l9 -17l-16 -166 l-252 4h-588z" />
<glyph unicode="&#xa4;" horiz-adv-x="996" d="M53 1129v22l98 106l24 -3l144 -155q78 57 178 57q95 0 173 -53l142 156l22 2l107 -101v-22l-157 -145q58 -83 58 -181q0 -91 -56 -172l159 -140l3 -23l-101 -107l-24 2l-142 156q-81 -60 -184 -60q-95 0 -171 55l-140 -156h-24l-107 101l2 23l156 140q-60 81 -60 181 q0 97 55 177zM287 812q0 -91 60.5 -151t149.5 -60q93 0 153.5 59.5t60.5 151.5t-60.5 152.5t-153.5 60.5q-89 0 -149.5 -61t-60.5 -152z" />
<glyph unicode="&#xa5;" horiz-adv-x="1146" d="M55 280l7 99h420v6l-103 191h-315l-9 13l7 99h257l-243 459h208l25 -71l260 -472h16l280 464l34 79h204l-265 -459h256l11 -12l-9 -100h-325l-108 -186v-11h431l9 -12l-7 -98h-433l5 -269h-195l6 269h-415z" />
<glyph unicode="&#xa6;" horiz-adv-x="712" d="M267 348l157 19l21 -23v-931l-161 -12l-17 23v924zM267 856v965l164 14l16 -16l-2 -961l-161 -18z" />
<glyph unicode="&#xa7;" horiz-adv-x="974" d="M71 -158l30 193l23 15q69 -61 146 -94.5t148 -33.5q81 0 129.5 42t48.5 98q0 29 -17.5 57t-47 52t-67.5 48.5t-80 49.5t-84.5 51.5t-80.5 59t-67.5 68t-47 81.5t-17.5 97q0 64 26.5 124t75 109.5t113.5 83.5q-112 97 -112 217q0 66 30 126t82 104.5t126.5 71t158.5 26.5 q40 0 84.5 -5.5t92.5 -17.5t89 -29l-30 -188l-29 -7q-134 92 -241 92q-72 0 -118.5 -42.5t-46.5 -95.5q0 -33 21.5 -64t57.5 -56t82 -53.5t93.5 -55.5t93.5 -62t81.5 -72.5t57.5 -88.5t22 -108q0 -97 -57.5 -180.5t-158.5 -133.5q115 -99 115 -222q0 -66 -30 -126t-82 -105 t-128.5 -71.5t-163.5 -26.5q-48 0 -104.5 9t-113.5 25.5t-103 37.5zM284 674q0 -16 4.5 -31.5t11 -29.5t18.5 -28t23.5 -26t29 -25.5t32 -24t36 -24.5t37 -23.5t40 -24t40.5 -24.5q144 65 144 169q0 21 -7 41.5t-15.5 36.5t-28 35.5t-33 31.5t-42 31.5t-43.5 29.5t-49 31 t-49 30q-149 -71 -149 -175z" />
<glyph unicode="&#xa8;" horiz-adv-x="891" d="M140 1401q0 57 33.5 90.5t90.5 33.5q55 0 85 -30.5t30 -86.5q0 -39 -15 -67.5t-42.5 -43.5t-65.5 -15q-56 0 -86 31t-30 88zM516 1401q0 57 33.5 90.5t90.5 33.5q36 0 62 -14t39.5 -40t13.5 -63q0 -59 -32.5 -92.5t-89.5 -33.5t-87 31t-30 88z" />
<glyph unicode="&#xa9;" horiz-adv-x="1572" d="M103 672q0 156 49 286.5t137.5 221.5t215.5 141.5t279 50.5t280 -50.5t217 -141.5t138 -221.5t49 -286.5t-49 -286.5t-138 -221.5t-217 -141.5t-280 -50.5t-279 50.5t-215.5 141.5t-137.5 221.5t-49 286.5zM193 672q0 -182 73.5 -320.5t207.5 -214t310 -75.5t311 75.5 t209.5 214t74.5 320.5t-74.5 320.5t-209.5 214t-311 75.5t-310 -75.5t-207.5 -214t-73.5 -320.5zM445 674q0 188 98.5 290t281.5 102q107 0 212 -46l-30 -127l-14 -7q-35 22 -82 35t-90 13q-106 0 -158.5 -60.5t-52.5 -185.5q0 -266 213 -266q45 0 94.5 12.5t89.5 33.5 l16 -7l-14 -128q-96 -44 -197 -44q-181 0 -274 99t-93 286z" />
<glyph unicode="&#xaa;" horiz-adv-x="751" d="M68 965q0 150 157 177l230 42l2 68q0 101 -102 101q-83 0 -213 -82l-13 7l-24 128q138 85 285 85q118 0 182.5 -52.5t64.5 -149.5q0 -24 -6.5 -170.5t-6.5 -164.5q0 -20 3 -31.5t11 -17.5t21 -6q22 0 39 12l13 -12l-19 -107q-50 -35 -105 -35q-53 0 -80.5 24.5 t-40.5 85.5h-7q-77 -92 -168 -112q-51 1 -92.5 15.5t-70.5 41.5t-44.5 66t-15.5 87zM248 984q0 -28 9.5 -48.5t28.5 -31.5t47 -11q60 0 118 68l4 131l-146 -32q-61 -11 -61 -76z" />
<glyph unicode="&#xab;" horiz-adv-x="941" d="M46 495v44l324 402l109 -63l5 -25l-266 -332l266 -333l-5 -26l-109 -61zM445 495v44l323 402l110 -63l5 -25l-266 -332l266 -333l-5 -26l-110 -61z" />
<glyph unicode="&#xac;" d="M59 539l15 144h891l14 -15v-539l-141 -13l-19 17v390h-743z" />
<glyph unicode="&#xad;" horiz-adv-x="701" d="M64 479v147l551 81l20 -19v-147l-550 -82z" />
<glyph unicode="&#xae;" horiz-adv-x="1013" d="M87 1191q0 189 115.5 304.5t304.5 115.5q191 0 306 -115.5t115 -304.5q0 -125 -51.5 -221t-147.5 -149t-222 -53q-188 0 -304 116.5t-116 306.5zM156 1191q0 -160 97 -258.5t257 -98.5q158 0 255 98.5t97 258.5q0 78 -25.5 144t-71.5 112t-111.5 71t-143.5 25 q-79 0 -145 -25t-112 -71t-71.5 -112t-25.5 -144zM351 982l2 132l-2 315h179q48 0 82 -15.5t51.5 -46t17.5 -73.5q0 -42 -23 -77.5t-64 -58.5q55 -84 117 -156l-2 -9q-35 -15 -92 -19l-11 8q-45 65 -92 154h-74v-9l5 -145h-94zM442 1211l79 -5q32 13 48 31t16 50 q0 67 -88 70l-52 -2z" />
<glyph unicode="&#xaf;" horiz-adv-x="891" d="M110 1346l12 134h646l16 -16l-11 -136h-646z" />
<glyph unicode="&#xb0;" horiz-adv-x="672" d="M44 1200q0 121 85 206t208 85q60 0 114 -23t93 -62t61.5 -93t22.5 -113q0 -122 -84.5 -205.5t-206.5 -83.5q-81 0 -148.5 38t-106 104.5t-38.5 146.5zM149 1200q0 -76 55 -130t131 -54q77 0 131.5 54t54.5 129.5t-54.5 129.5t-131.5 54q-50 0 -92.5 -24.5t-68 -67 t-25.5 -91.5z" />
<glyph unicode="&#xb1;" d="M64 -218l12 144h944l17 -16l-12 -144h-944zM64 539l14 144h392v396l145 13l18 -19v-390h387l19 -15l-14 -145h-392v-394l-145 -13l-18 17v390h-389z" />
<glyph unicode="&#xb2;" horiz-adv-x="810" d="M85 738v118l220 249q89 106 127 163t38 102q0 39 -27 64t-78 25q-53 0 -113 -30t-108 -83h-22l-32 149q164 125 323 125q112 0 184.5 -55.5t72.5 -151.5q0 -45 -21 -96.5t-61 -110t-109 -142.5l-135 -171l4 -5h248l152 7l7 -15l-21 -153l-198 7h-380l-62 -3z" />
<glyph unicode="&#xb3;" horiz-adv-x="717" d="M59 1532q129 90 276 90q78 0 138 -25t93 -72t33 -109q0 -60 -34 -117.5t-106 -92.5v-9q169 -45 169 -206q0 -120 -105 -194.5t-275 -74.5q-79 0 -165 19l-12 137l14 15q89 -24 165 -24q58 0 99.5 15t64 43.5t22.5 68.5q0 51 -36 80.5t-104 31.5h-108l-9 11l2 131h69 q58 2 103.5 38.5t45.5 90.5q0 43 -28.5 66t-79.5 23q-77 0 -179 -67h-20z" />
<glyph unicode="&#xb4;" horiz-adv-x="891" d="M197 1285q236 190 392 339l24 -2l87 -125l-4 -22q-182 -132 -416 -284l-24 2z" />
<glyph unicode="&#xb5;" horiz-adv-x="1180" d="M151 -424l9 866l-9 600l221 20v-714q2 -79 44.5 -124t117.5 -45q119 0 246 117v746l222 20l-15 -806q-4 -100 59 -100q35 0 68 23l22 -17l-26 -127q-70 -48 -147 -48q-69 0 -109.5 35.5t-61.5 115.5h-19q-130 -120 -276 -151q-70 0 -125 20v-431h-221z" />
<glyph unicode="&#xb6;" horiz-adv-x="1146" d="M76 1005q0 224 136.5 346t388.5 122h478l17 -21l-17 -161h-164l-7 -860l3 -129q0 -108 -38.5 -192.5t-126.5 -157.5t-234 -138l-65 108v25q129 74 186 155t57 189v108l-7 895h-121q-115 -14 -178 -90.5t-63 -205.5q0 -128 70 -221.5t200 -139.5l-79 -127 q-211 45 -323.5 171t-112.5 324z" />
<glyph unicode="&#xb7;" horiz-adv-x="524" d="M133 567q0 61 36 97t98 36q38 0 65.5 -15t41.5 -43t14 -66q0 -62 -35 -99t-94 -37q-61 0 -93.5 33t-32.5 94z" />
<glyph unicode="&#xb8;" horiz-adv-x="891" d="M261 -383l21 107l11 5q67 -71 131 -71q31 0 49 15t18 43q0 31 -44 50l-112 66l55 218h124l-46 -164l77 -46q50 -27 71 -58.5t21 -72.5q0 -71 -55 -115.5t-144 -44.5q-100 0 -177 68z" />
<glyph unicode="&#xb9;" horiz-adv-x="607" d="M28 1368v155l362 99l28 -24l-7 -552l7 -312h-200l5 289v380l-179 -46z" />
<glyph unicode="&#xba;" horiz-adv-x="784" d="M64 1110q0 92 22 163.5t65 119.5t106.5 73t145.5 25q104 0 175.5 -41t107.5 -121t36 -196q0 -184 -87 -282t-252 -98q-155 0 -237 91.5t-82 265.5zM250 1131q0 -129 34.5 -187t109.5 -58q19 0 35 3t30 9.5t25 16t20.5 23t16 31t11 39t7 47t2.5 55.5q0 129 -35.5 186 t-111.5 57t-110 -52t-34 -170z" />
<glyph unicode="&#xbb;" horiz-adv-x="930" d="M48 190l267 333l-267 333l5 24l109 63l324 -395v-43l-324 -402l-109 62zM447 190l266 333l-266 333l2 24l113 63l324 -395v-43l-324 -402l-113 62z" />
<glyph unicode="&#xbc;" horiz-adv-x="1653" d="M28 1234v156l362 98l28 -22l-7 -553l7 -312h-200l5 289v381l-179 -46zM129 -119l1075 1681l99 -60l14 -34l-1074 -1676l-103 59zM888 230v121l373 525h184l-5 -513h129l11 -17l-9 -135l-126 5l9 -203l-11 -13l-156 -7l-11 9l4 216h-247l-131 -7zM1060 363h222v298h-13z " />
<glyph unicode="&#xbd;" horiz-adv-x="1696" d="M28 1234v156l362 98l28 -22l-7 -553l7 -312h-200l5 289v381l-179 -46zM129 -119l1075 1681l99 -60l14 -34l-1074 -1676l-103 59zM970 4v118l221 250q45 53 69 83.5t49.5 66.5t35.5 62.5t10 50.5q0 40 -27 65t-78 25q-54 0 -113 -30t-107 -82h-23l-33 149q165 124 324 124 q112 0 185 -56t73 -151q0 -67 -44 -145t-147 -204l-135 -172l4 -5h248l151 7l7 -13l-20 -154l-198 7h-380l-63 -2z" />
<glyph unicode="&#xbe;" horiz-adv-x="1740" d="M59 1399q129 89 276 89q119 0 191.5 -55.5t72.5 -150.5q0 -59 -34 -116.5t-106 -92.5v-9q169 -46 169 -206q0 -120 -105 -194.5t-275 -74.5q-79 0 -165 19l-12 138l14 13q89 -23 165 -23q43 0 78 8.5t58.5 24.5t36.5 39.5t13 53.5q0 52 -36 81.5t-104 30.5h-108l-9 13 l2 130h69q27 0 54 10t48 27t34 41t13 50q0 29 -13 49t-37 30.5t-58 10.5q-79 0 -179 -66h-20zM216 -119l1075 1681l99 -60l13 -34l-1073 -1676l-103 59zM974 230v121l374 525h184l-4 -513h128l12 -17l-9 -135l-127 5l9 -203l-11 -13l-156 -7l-11 9l5 216h-249l-130 -7z M1147 363h223v298h-15z" />
<glyph unicode="&#xbf;" horiz-adv-x="768" d="M-13 -90q0 92 51 172t148 139l179 114l5 9l-15 212l166 20l18 -18l19 -269l-13 -22l-212 -120q-136 -78 -136 -200q0 -105 106.5 -164t331.5 -72l17 -23l-44 -130l-26 -13q-285 15 -440 110.5t-155 254.5zM307 948q0 62 35.5 98.5t95.5 36.5t92 -34t32 -95 q0 -60 -35.5 -96.5t-95.5 -36.5q-39 0 -67 15t-42.5 43.5t-14.5 68.5z" />
<glyph unicode="&#xc0;" horiz-adv-x="1346" d="M26 0l522 1473h280l472 -1473h-240l-35 165l-64 205l-311 6l-285 -6l-67 -193l-37 -177h-235zM409 1863l61 140l23 4q133 -78 455 -245l-40 -101l-25 -9q-313 121 -465 187zM433 562l235 -4l234 4l-212 679h-18z" />
<glyph unicode="&#xc1;" horiz-adv-x="1346" d="M26 0l522 1473h280l472 -1473h-240l-35 165l-64 205l-311 6l-285 -6l-67 -193l-37 -177h-235zM433 562l235 -4l234 4l-212 679h-18zM466 1760q312 162 454 245l23 -5l62 -140l-9 -23q-143 -62 -466 -187l-25 9z" />
<glyph unicode="&#xc2;" horiz-adv-x="1346" d="M26 0l522 1473h280l472 -1473h-240l-35 165l-64 205l-311 6l-285 -6l-67 -193l-37 -177h-235zM365 1775q148 98 285 221h54q127 -114 285 -221l-44 -98h-25q-167 101 -244 151q-75 -51 -240 -151h-25zM433 562l235 -4l234 4l-212 679h-18z" />
<glyph unicode="&#xc3;" horiz-adv-x="1346" d="M26 0l522 1473h280l472 -1473h-240l-35 165l-64 205l-311 6l-285 -6l-67 -193l-37 -177h-235zM296 1743v21l149 177l25 9q34 -5 90 -19t104.5 -28t95 -25t65.5 -11q8 0 15.5 2.5t14.5 6t16 11t15.5 13.5t17 17t17.5 18.5t19.5 21t20.5 22.5h23l69 -73v-21l-149 -176 l-24 -11q-49 6 -186.5 45t-168.5 39q-12 0 -23.5 -5.5t-26 -18t-25 -23t-29.5 -32t-31 -33.5h-23zM433 562l235 -4l234 4l-212 679h-18z" />
<glyph unicode="&#xc4;" horiz-adv-x="1346" d="M26 0l522 1473h280l472 -1473h-240l-35 165l-64 205l-311 6l-285 -6l-67 -193l-37 -177h-235zM370 1816.5q0 57.5 33 91t90 33.5q55 0 85 -31t30 -87q0 -39 -14.5 -67t-42 -43t-65.5 -15q-57 0 -86.5 30.5t-29.5 88zM433 562l235 -4l234 4l-212 679h-18zM746 1816.5 q0 57.5 33 91t90 33.5q55 0 85 -31t30 -87q0 -58 -32 -91.5t-90 -33.5q-56 0 -86 30.5t-30 88z" />
<glyph unicode="&#xc5;" horiz-adv-x="1346" d="M26 0l522 1473h280l472 -1473h-240l-35 165l-64 205l-311 6l-285 -6l-67 -193l-37 -177h-235zM433 562l235 -4l234 4l-212 679h-18zM470 1837q0 63 24.5 108.5t71 70t110.5 24.5q98 0 150 -53.5t52 -141.5q0 -98 -57 -153t-151 -55q-91 0 -145.5 52.5t-54.5 147.5z M576 1842q0 -33 11.5 -56t33.5 -34.5t53 -11.5q46 0 72.5 24.5t26.5 72.5q0 44 -25.5 70t-75.5 26q-47 0 -71.5 -23.5t-24.5 -67.5z" />
<glyph unicode="&#xc6;" horiz-adv-x="1867" d="M-39 0l748 1473h922l13 -21l-18 -181l-367 11h-211l66 -488l473 108l19 -16l16 -168l-484 -105l57 -425h250l376 14l16 -21l-18 -181h-837l-12 165l-55 395l-521 -129l-130 -254l-62 -177h-241zM505 650l385 91l-69 500h-16z" />
<glyph unicode="&#xc7;" horiz-adv-x="1189" d="M78 722q0 368 176 567t496 199q224 0 397 -100l-44 -209l-22 -6q-151 118 -340 118q-203 0 -309 -136.5t-106 -406.5q0 -278 107.5 -422.5t307.5 -144.5q65 0 129 14.5t124.5 43t113.5 68.5l23 -14l-19 -215q-173 -84 -341 -94l-27 -98l77 -46q50 -27 71 -58.5t21 -72.5 q0 -71 -55.5 -115.5t-144.5 -44.5q-100 0 -177 68l22 107l11 5q67 -71 131 -71q20 0 34.5 6.5t23 19.5t8.5 32q0 31 -44 50l-112 66l40 152q-276 25 -424 215t-148 523z" />
<glyph unicode="&#xc8;" horiz-adv-x="1130" d="M197 0l16 442l-16 1031h874l14 -21l-19 -181l-348 9l-280 -2l-7 -429l267 -5l243 7l15 -19l-17 -180l-260 7l-250 -5l-2 -190l4 -271l282 -3l355 12l15 -21l-17 -181h-869zM370 1863l61 140l24 4q141 -83 453 -245l-39 -101l-25 -9q-323 125 -465 187z" />
<glyph unicode="&#xc9;" horiz-adv-x="1130" d="M197 0l16 442l-16 1031h874l14 -21l-19 -181l-348 9l-280 -2l-7 -429l267 -5l243 7l15 -19l-17 -180l-260 7l-250 -5l-2 -190l4 -271l282 -3l355 12l15 -21l-17 -181h-869zM427 1760q312 162 453 245l24 -5l61 -140l-9 -23q-142 -62 -465 -187l-25 9z" />
<glyph unicode="&#xca;" horiz-adv-x="1130" d="M197 0l16 442l-16 1031h874l14 -21l-19 -181l-348 9l-280 -2l-7 -429l267 -5l243 7l15 -19l-17 -180l-260 7l-250 -5l-2 -190l4 -271l282 -3l355 12l15 -21l-17 -181h-869zM326 1775q148 98 284 221h55q127 -114 285 -221l-44 -98h-26q-166 101 -243 151 q-75 -51 -241 -151h-24z" />
<glyph unicode="&#xcb;" horiz-adv-x="1130" d="M197 0l16 442l-16 1031h874l14 -21l-19 -181l-348 9l-280 -2l-7 -429l267 -5l243 7l15 -19l-17 -180l-260 7l-250 -5l-2 -190l4 -271l282 -3l355 12l15 -21l-17 -181h-869zM330 1817q0 57 34 90.5t91 33.5q55 0 84.5 -31t29.5 -87q0 -58 -32.5 -91.5t-89.5 -33.5 t-87 30.5t-30 88.5zM707 1816.5q0 57.5 33 91t90 33.5q55 0 85 -31t30 -87q0 -58 -32.5 -91.5t-89.5 -33.5t-86.5 30.5t-29.5 88z" />
<glyph unicode="&#xcc;" horiz-adv-x="639" d="M50 1863l62 140l24 4q141 -83 453 -245l-38 -101l-26 -9q-323 125 -466 187zM197 0l16 442l-16 1031h243l-13 -1009l9 -464h-239z" />
<glyph unicode="&#xcd;" horiz-adv-x="639" d="M108 1760q321 166 454 245l23 -5l62 -140l-10 -23q-151 -66 -465 -187l-25 9zM197 0l16 442l-16 1031h243l-13 -1009l9 -464h-239z" />
<glyph unicode="&#xce;" horiz-adv-x="639" d="M7 1775q148 98 284 221h55q127 -114 285 -221l-44 -98h-25q-167 101 -243 151q-75 -51 -241 -151h-25zM197 0l16 442l-16 1031h243l-13 -1009l9 -464h-239z" />
<glyph unicode="&#xd0;" horiz-adv-x="1543" d="M30 676l9 145h222l-9 652l558 9q317 0 486.5 -179t169.5 -513q0 -389 -185.5 -596t-532.5 -207q-220 0 -496 13l15 442l-3 217h-223zM479 464l7 -274q180 -15 300 -15q211 0 323 139.5t112 421.5q0 283 -106 418t-323 135q-127 0 -301 -9l-7 -459h308l11 -18l-9 -144 h-312z" />
<glyph unicode="&#xd1;" horiz-adv-x="1578" d="M197 0l16 436l-11 1037h253l692 -1103h16l-5 1092l223 15l-16 -1037l7 -440h-253l-692 1103h-16l-2 -610l9 -493h-221zM403 1743v21l150 177l25 9q49 -7 188 -45t168 -38q10 0 20.5 4.5t19 10t21.5 19t21 22t25.5 27.5t26.5 29h24l68 -73v-21l-149 -176l-22 -11 q-49 6 -187.5 45t-168.5 39q-12 0 -24 -5.5t-26 -18t-24.5 -23t-30 -32t-31.5 -33.5h-22z" />
<glyph unicode="&#xd2;" horiz-adv-x="1464" d="M78 722q0 370 176 569.5t501 199.5q304 0 468.5 -188.5t164.5 -536.5q0 -377 -176 -581.5t-501 -204.5q-303 0 -468 193.5t-165 548.5zM321 753q0 -302 99.5 -442.5t308.5 -140.5t311 134.5t102 417.5q0 298 -100 436t-311 138q-210 0 -310 -131.5t-100 -411.5zM466 1863 l62 140l23 4q141 -83 454 -245l-40 -101l-24 -9q-323 125 -466 187z" />
<glyph unicode="&#xd3;" horiz-adv-x="1464" d="M78 722q0 370 176 569.5t501 199.5q304 0 468.5 -188.5t164.5 -536.5q0 -377 -176 -581.5t-501 -204.5q-303 0 -468 193.5t-165 548.5zM321 753q0 -302 99.5 -442.5t308.5 -140.5t311 134.5t102 417.5q0 298 -100 436t-311 138q-210 0 -310 -131.5t-100 -411.5zM523 1760 q312 162 454 245l23 -5l62 -140l-9 -23q-143 -62 -466 -187l-25 9z" />
<glyph unicode="&#xd4;" horiz-adv-x="1464" d="M78 722q0 370 176 569.5t501 199.5q304 0 468.5 -188.5t164.5 -536.5q0 -377 -176 -581.5t-501 -204.5q-303 0 -468 193.5t-165 548.5zM321 753q0 -302 99.5 -442.5t308.5 -140.5t311 134.5t102 417.5q0 298 -100 436t-311 138q-210 0 -310 -131.5t-100 -411.5zM422 1775 q148 98 285 221h55q126 -114 284 -221l-44 -98h-25q-167 101 -243 151q-76 -51 -241 -151h-25z" />
<glyph unicode="&#xd5;" horiz-adv-x="1464" d="M78 722q0 370 176 569.5t501 199.5q304 0 468.5 -188.5t164.5 -536.5q0 -377 -176 -581.5t-501 -204.5q-303 0 -468 193.5t-165 548.5zM321 753q0 -302 99.5 -442.5t308.5 -140.5t311 134.5t102 417.5q0 298 -100 436t-311 138q-210 0 -310 -131.5t-100 -411.5zM353 1743 v21l150 177l25 9q41 -6 119 -27t145 -38.5t91 -17.5q8 0 16 2.5t17.5 9t17.5 12.5t19.5 18.5t19 20t22.5 24t23 25.5h24l68 -73v-21l-149 -176l-22 -11q-49 6 -187.5 45t-169.5 39q-12 0 -23.5 -5.5t-26 -18t-24.5 -23t-29.5 -32t-31.5 -33.5h-23z" />
<glyph unicode="&#xd7;" d="M160 305v21l278 278l-278 274v26l111 92l280 -278l279 278l111 -92v-26l-276 -274l276 -276v-23l-111 -94l-279 277l-280 -280z" />
<glyph unicode="&#xd8;" horiz-adv-x="1464" d="M78 722q0 370 176 569.5t501 199.5q114 0 222 -29l99 210l132 -52l17 -26l-96 -206q127 -88 193 -245.5t66 -376.5q0 -377 -176 -581.5t-501 -204.5q-129 0 -232 33l-124 -263l-134 55l-13 20l125 265q-125 92 -190 252t-65 380zM321 753q0 -315 110 -455l457 975 q-65 23 -157 23q-210 0 -310 -131.5t-100 -411.5zM567 197q69 -27 162 -27q209 0 311 134.5t102 417.5q0 321 -114 455z" />
<glyph unicode="&#xd9;" horiz-adv-x="1447" d="M158 532l2 204l-2 737h234l-9 -909q-2 -191 82 -285.5t255 -94.5q347 0 344 357l-11 932h238l-6 -748l-3 -174q4 -271 -147 -420t-431 -149q-266 0 -408.5 143t-137.5 407zM461 1863l62 140l22 4q133 -78 455 -245l-39 -101l-25 -9q-323 125 -466 187z" />
<glyph unicode="&#xda;" horiz-adv-x="1447" d="M158 532l2 204l-2 737h234l-9 -909q-2 -191 82 -285.5t255 -94.5q347 0 344 357l-11 932h238l-6 -748l-3 -174q4 -271 -147 -420t-431 -149q-266 0 -408.5 143t-137.5 407zM519 1760q312 162 453 245l24 -5l61 -140l-9 -23q-142 -62 -466 -187l-24 9z" />
<glyph unicode="&#xdb;" horiz-adv-x="1447" d="M158 532l2 204l-2 737h234l-9 -909q-2 -191 82 -285.5t255 -94.5q347 0 344 357l-11 932h238l-6 -748l-3 -174q4 -271 -147 -420t-431 -149q-266 0 -408.5 143t-137.5 407zM418 1775q148 98 284 221h55q127 -114 285 -221l-44 -98h-26q-167 101 -243 151 q-75 -51 -241 -151h-24z" />
<glyph unicode="&#xdc;" horiz-adv-x="1447" d="M158 532l2 204l-2 737h234l-9 -909q-2 -191 82 -285.5t255 -94.5q347 0 344 357l-11 932h238l-6 -748l-3 -174q4 -271 -147 -420t-431 -149q-266 0 -408.5 143t-137.5 407zM422 1816.5q0 57.5 33 91t90 33.5q56 0 86 -31t30 -87q0 -39 -14.5 -67t-42 -43t-65.5 -15 q-57 0 -87 30.5t-30 88zM799 1816.5q0 57.5 33 91t90 33.5q55 0 85 -31t30 -87q0 -58 -32.5 -91.5t-89.5 -33.5t-86.5 30.5t-29.5 88z" />
<glyph unicode="&#xde;" horiz-adv-x="1237" d="M199 0l12 442l-9 786l-3 245h241l-2 -245l266 2q225 0 345 -113.5t120 -330.5q0 -252 -148.5 -389.5t-424.5 -137.5l-163 -5l5 -254h-239zM429 447l232 -7q261 54 261 331q0 135 -70.5 201.5t-214.5 73.5l-201 -7l-7 -575v-17z" />
<glyph unicode="&#xdf;" horiz-adv-x="1333" d="M71 917l14 136h151v89q0 224 132 348.5t357 124.5q188 0 288.5 -84.5t100.5 -223.5q0 -49 -13.5 -92.5t-35 -75t-47.5 -60t-52.5 -54.5t-48 -51.5t-35 -56.5t-13.5 -66q0 -41 19.5 -76t51.5 -60t72.5 -51.5t83 -49t83 -53t72.5 -63.5t51.5 -81t19.5 -105 q0 -66 -26.5 -125.5t-75.5 -106t-125.5 -73.5t-170.5 -27q-156 0 -311 70l27 195l23 16q66 -59 140.5 -91t141.5 -32q52 0 90 18t57.5 48.5t19.5 68.5q0 39 -24.5 73.5t-64.5 62t-87.5 55t-95.5 60.5t-87.5 71.5t-64.5 94t-25 122.5q0 50 14 92t37 71.5t50 56.5t54.5 52.5 t50 52t37 62t14.5 77.5q0 82 -55 126.5t-152 44.5q-119 0 -186.5 -70t-69.5 -208l-10 -708l14 -461h-231l13 436l-4 468h-158z" />
<glyph unicode="&#xe0;" horiz-adv-x="1077" d="M85 282q0 106 56 167.5t166 86.5l363 81l2 124q0 57 -19.5 95.5t-56 57.5t-89.5 19q-51 0 -103 -16t-107 -48t-118 -83l-19 11l-29 164q202 138 412 138q104 0 181 -34t119.5 -99t42.5 -154q0 -41 -14 -273.5t-14 -270.5q0 -45 13.5 -61.5t50.5 -16.5q25 0 71 9l21 -17 l-23 -127q-64 -40 -144 -51q-71 7 -115.5 51.5t-52.5 117.5h-16q-121 -124 -239 -171q-159 2 -249 82t-90 218zM269 1497l86 125l24 2q156 -149 392 -339l-60 -92l-23 -2q-224 145 -415 284zM293 312q0 -69 38 -108t102 -39q58 0 114 35.5t116 104.5l7 177l-298 -71 q-41 -9 -60 -31.5t-19 -67.5z" />
<glyph unicode="&#xe1;" horiz-adv-x="1077" d="M85 282q0 106 56 167.5t166 86.5l363 81l2 124q0 57 -19.5 95.5t-56 57.5t-89.5 19q-51 0 -103 -16t-107 -48t-118 -83l-19 11l-29 164q202 138 412 138q104 0 181 -34t119.5 -99t42.5 -154q0 -41 -14 -273.5t-14 -270.5q0 -45 13.5 -61.5t50.5 -16.5q25 0 71 9l21 -17 l-23 -127q-64 -40 -144 -51q-71 7 -115.5 51.5t-52.5 117.5h-16q-121 -124 -239 -171q-159 2 -249 82t-90 218zM293 312q0 -69 38 -108t102 -39q58 0 114 35.5t116 104.5l7 177l-298 -71q-41 -9 -60 -31.5t-19 -67.5zM330 1285q236 190 392 339l24 -2l86 -125l-4 -22 q-191 -139 -415 -284l-23 2z" />
<glyph unicode="&#xe2;" horiz-adv-x="1077" d="M85 282q0 106 56 167.5t166 86.5l363 81l2 124q0 57 -19.5 95.5t-56 57.5t-89.5 19q-51 0 -103 -16t-107 -48t-118 -83l-19 11l-29 164q202 138 412 138q104 0 181 -34t119.5 -99t42.5 -154q0 -41 -14 -273.5t-14 -270.5q0 -45 13.5 -61.5t50.5 -16.5q25 0 71 9l21 -17 l-23 -127q-64 -40 -144 -51q-71 7 -115.5 51.5t-52.5 117.5h-16q-121 -124 -239 -171q-159 2 -249 82t-90 218zM195 1294q124 118 298 314h60q172 -196 296 -314l-63 -92h-22q-164 144 -241 229q-72 -77 -241 -229h-26zM293 312q0 -69 38 -108t102 -39q58 0 114 35.5 t116 104.5l7 177l-298 -71q-41 -9 -60 -31.5t-19 -67.5z" />
<glyph unicode="&#xe3;" horiz-adv-x="1077" d="M85 282q0 106 56 167.5t166 86.5l363 81l2 124q0 57 -19.5 95.5t-56 57.5t-89.5 19q-51 0 -103 -16t-107 -48t-118 -83l-19 11l-29 164q202 138 412 138q104 0 181 -34t119.5 -99t42.5 -154q0 -41 -14 -273.5t-14 -270.5q0 -45 13.5 -61.5t50.5 -16.5q25 0 71 9l21 -17 l-23 -127q-64 -40 -144 -51q-71 7 -115.5 51.5t-52.5 117.5h-16q-121 -124 -239 -171q-159 2 -249 82t-90 218zM140 1328v20l149 177l26 9q49 -6 187.5 -44t167.5 -38q8 0 16.5 2.5t17.5 9t17 13t19.5 18t19.5 20.5t22 24.5t23 25.5h23l69 -74v-20l-149 -177l-23 -12 q-42 6 -119.5 27.5t-144 40t-91.5 18.5q-12 0 -24 -5.5t-26 -18t-25 -24t-30 -32.5t-31 -34h-23zM293 312q0 -69 38 -108t102 -39q58 0 114 35.5t116 104.5l7 177l-298 -71q-41 -9 -60 -31.5t-19 -67.5z" />
<glyph unicode="&#xe4;" horiz-adv-x="1077" d="M85 282q0 106 56 167.5t166 86.5l363 81l2 124q0 57 -19.5 95.5t-56 57.5t-89.5 19q-51 0 -103 -16t-107 -48t-118 -83l-19 11l-29 164q202 138 412 138q104 0 181 -34t119.5 -99t42.5 -154q0 -41 -14 -273.5t-14 -270.5q0 -45 13.5 -61.5t50.5 -16.5q25 0 71 9l21 -17 l-23 -127q-64 -40 -144 -51q-71 7 -115.5 51.5t-52.5 117.5h-16q-121 -124 -239 -171q-159 2 -249 82t-90 218zM213 1401q0 57 33.5 90.5t90.5 33.5q55 0 84.5 -30.5t29.5 -86.5q0 -59 -32 -92.5t-89 -33.5t-87 31t-30 88zM293 312q0 -69 38 -108t102 -39q58 0 114 35.5 t116 104.5l7 177l-298 -71q-41 -9 -60 -31.5t-19 -67.5zM589 1401q0 57 33.5 90.5t90.5 33.5q37 0 63 -14t39 -40t13 -63q0 -59 -32 -92.5t-89 -33.5t-87.5 31t-30.5 88z" />
<glyph unicode="&#xe5;" horiz-adv-x="1077" d="M85 282q0 106 56 167.5t166 86.5l363 81l2 124q0 57 -19.5 95.5t-56 57.5t-89.5 19q-51 0 -103 -16t-107 -48t-118 -83l-19 11l-29 164q202 138 412 138q104 0 181 -34t119.5 -99t42.5 -154q0 -41 -14 -273.5t-14 -270.5q0 -45 13.5 -61.5t50.5 -16.5q25 0 71 9l21 -17 l-23 -127q-64 -40 -144 -51q-71 7 -115.5 51.5t-52.5 117.5h-16q-121 -124 -239 -171q-159 2 -249 82t-90 218zM293 312q0 -69 38 -108t102 -39q58 0 114 35.5t116 104.5l7 177l-298 -71q-41 -9 -60 -31.5t-19 -67.5zM315 1422q0 96 54 149t152 53q97 0 149 -53t52 -142 q0 -98 -57 -152t-151 -54q-91 0 -145 52.5t-54 146.5zM420 1427q0 -34 12 -56.5t33.5 -33.5t53.5 -11q46 0 72 24t26 72q0 29 -10.5 50.5t-33.5 34t-57 12.5q-31 0 -53 -11t-32.5 -31.5t-10.5 -49.5z" />
<glyph unicode="&#xe6;" horiz-adv-x="1570" d="M81 282q0 108 56 177t165 84l357 51v147q0 172 -164 172q-46 0 -95.5 -16t-105 -48t-119.5 -83l-19 11l-32 164q198 138 399 138q105 0 175 -39.5t105 -105.5q30 34 67 61t78 45t87 27t94 9q179 0 282 -118.5t93 -338.5l-22 -32l-633 -92q8 -171 80 -256.5t211 -85.5 q71 0 149 26.5t147 72.5l23 -13l-32 -182q-67 -36 -148.5 -56.5t-157.5 -20.5q-129 0 -227.5 55t-155.5 160q-126 -148 -300 -213q-109 1 -189.5 36t-124 102.5t-43.5 161.5zM289 305q0 -67 39 -102t105 -35q39 0 74.5 14t75 45t96.5 88q-16 98 -18 151l-269 -48 q-56 -10 -79.5 -38t-23.5 -75zM847 624l449 74q-1 71 -26 120.5t-69 74t-102 24.5q-106 0 -179 -83.5t-73 -202.5v-7z" />
<glyph unicode="&#xe7;" horiz-adv-x="882" d="M85 519q0 260 129 410t355 150q37 0 75 -4.5t74.5 -12.5t70.5 -19t62 -25l-39 -195l-22 -9q-119 72 -226 72q-122 0 -190.5 -91.5t-68.5 -258.5q0 -176 71 -273.5t202 -97.5q114 0 245 69l24 -13l-26 -189q-122 -46 -243 -52l-27 -94l77 -46q50 -27 71 -58.5t21 -72.5 q0 -71 -55 -115.5t-144 -44.5q-101 0 -177 68l21 107l11 5q67 -71 131 -71q30 0 48 15t18 43q0 31 -43 50l-112 66l39 155q-177 27 -274.5 166.5t-97.5 365.5z" />
<glyph unicode="&#xe8;" horiz-adv-x="1055" d="M85 523q0 257 138 405t371 148q181 0 282 -108t101 -298q0 -77 -9 -114l-40 -37h-628q4 -174 79.5 -266.5t224.5 -92.5q71 0 152.5 25.5t156.5 70.5l23 -13l-30 -186q-158 -77 -321 -77q-236 0 -368 145t-132 398zM312 661l452 11l4 28q0 108 -50.5 161.5t-139.5 53.5 q-105 0 -174 -66t-92 -188zM317 1497l86 125l24 2q156 -149 392 -339l-60 -92l-23 -2q-224 145 -415 284z" />
<glyph unicode="&#xe9;" horiz-adv-x="1055" d="M85 523q0 257 138 405t371 148q181 0 282 -108t101 -298q0 -77 -9 -114l-40 -37h-628q4 -174 79.5 -266.5t224.5 -92.5q71 0 152.5 25.5t156.5 70.5l23 -13l-30 -186q-158 -77 -321 -77q-236 0 -368 145t-132 398zM312 661l452 11l4 28q0 108 -50.5 161.5t-139.5 53.5 q-105 0 -174 -66t-92 -188zM379 1285q235 190 392 339l23 -2l86 -125l-4 -22q-191 -139 -415 -284l-23 2z" />
<glyph unicode="&#xea;" horiz-adv-x="1055" d="M85 523q0 257 138 405t371 148q181 0 282 -108t101 -298q0 -77 -9 -114l-40 -37h-628q4 -174 79.5 -266.5t224.5 -92.5q71 0 152.5 25.5t156.5 70.5l23 -13l-30 -186q-158 -77 -321 -77q-236 0 -368 145t-132 398zM243 1294q124 118 298 314h60q172 -196 296 -314 l-63 -92h-22q-164 144 -241 229q-72 -77 -241 -229h-25zM312 661l452 11l4 28q0 108 -50.5 161.5t-139.5 53.5q-105 0 -174 -66t-92 -188z" />
<glyph unicode="&#xeb;" horiz-adv-x="1055" d="M85 523q0 257 138 405t371 148q181 0 282 -108t101 -298q0 -77 -9 -114l-40 -37h-628q4 -174 79.5 -266.5t224.5 -92.5q71 0 152.5 25.5t156.5 70.5l23 -13l-30 -186q-158 -77 -321 -77q-236 0 -368 145t-132 398zM261 1401q0 57 33.5 90.5t90.5 33.5q55 0 85 -30.5 t30 -86.5q0 -59 -32 -92.5t-89 -33.5t-87.5 31t-30.5 88zM312 661l452 11l4 28q0 108 -50.5 161.5t-139.5 53.5q-105 0 -174 -66t-92 -188zM637 1401q0 57 33.5 90.5t91.5 33.5q55 0 84.5 -30.5t29.5 -86.5q0 -59 -32 -92.5t-89 -33.5t-87.5 31t-30.5 88z" />
<glyph unicode="&#xec;" horiz-adv-x="561" d="M32 1497l87 125l23 2q157 -149 392 -339l-59 -92l-24 -2q-223 145 -414 284zM162 0l15 442l-12 600l234 20l-18 -598l15 -464h-234z" />
<glyph unicode="&#xed;" horiz-adv-x="561" d="M94 1285q235 190 392 339l24 -2l86 -125l-5 -22q-191 -139 -414 -284l-24 2zM162 0l15 442l-12 600l234 20l-18 -598l15 -464h-234z" />
<glyph unicode="&#xee;" horiz-adv-x="561" d="M-41 1294q123 118 297 314h61q172 -196 296 -314l-62 -92h-23q-165 144 -241 229q-72 -77 -241 -229h-26zM162 0l15 442l-12 600l234 20l-18 -598l15 -464h-234z" />
<glyph unicode="&#xf0;" horiz-adv-x="1127" d="M90 514q0 256 123.5 397.5t350.5 141.5q84 0 156 -20q-74 128 -197 233l-273 -147l-23 10l-48 101l226 121q-128 78 -263 135v30l140 106h14q162 -75 291 -175l262 140l20 -7l48 -103l-221 -120q167 -159 253 -359.5t86 -430.5q0 -281 -125 -434t-357 -153 q-217 0 -340 139.5t-123 394.5zM293 514q0 -191 71 -284.5t205 -93.5q135 0 198 98.5t63 313.5q0 134 -25 257q-99 90 -229 90q-283 0 -283 -381z" />
<glyph unicode="&#xf1;" horiz-adv-x="1191" d="M162 0l15 442l-12 600l223 20l-3 -154h16q133 117 282 163q176 0 267 -80t89 -229l-6 -298l11 -464h-236l15 696q2 87 -39.5 135.5t-122.5 48.5q-136 0 -276 -136l-2 -280l13 -464h-234zM252 1328v20l149 177l26 9q49 -6 187.5 -44t167.5 -38q8 0 16.5 2.5t17.5 9t17 13 t19.5 18t19.5 20.5t22 24.5t23 25.5h24l68 -74v-20l-149 -177l-22 -12q-49 7 -187.5 46.5t-168.5 39.5q-12 0 -24 -5.5t-26 -18t-25 -24t-30 -32.5t-31 -34h-22z" />
<glyph unicode="&#xf2;" horiz-adv-x="1127" d="M85 512q0 272 127.5 419.5t365.5 147.5q222 0 343 -139.5t121 -394.5q0 -272 -128.5 -418.5t-365.5 -146.5q-147 0 -251 62t-158 181.5t-54 288.5zM302 562q0 -216 65 -319t195 -103t194.5 86.5t64.5 266.5q0 144 -29 238t-86 139t-144 45q-260 0 -260 -353zM315 1497 l86 125l23 2q157 -149 392 -339l-59 -92l-23 -2q-224 145 -415 284z" />
<glyph unicode="&#xf3;" horiz-adv-x="1127" d="M85 512q0 272 127.5 419.5t365.5 147.5q222 0 343 -139.5t121 -394.5q0 -272 -128.5 -418.5t-365.5 -146.5q-147 0 -251 62t-158 181.5t-54 288.5zM302 562q0 -216 65 -319t195 -103t194.5 86.5t64.5 266.5q0 144 -29 238t-86 139t-144 45q-260 0 -260 -353zM376 1285 q236 190 392 339l24 -2l86 -125l-4 -22q-191 -139 -415 -284l-23 2z" />
<glyph unicode="&#xf4;" horiz-adv-x="1127" d="M85 512q0 272 127.5 419.5t365.5 147.5q222 0 343 -139.5t121 -394.5q0 -272 -128.5 -418.5t-365.5 -146.5q-147 0 -251 62t-158 181.5t-54 288.5zM241 1294q124 118 298 314h60q172 -196 296 -314l-63 -92h-22q-164 144 -241 229q-72 -77 -241 -229h-26zM302 562 q0 -216 65 -319t195 -103t194.5 86.5t64.5 266.5q0 144 -29 238t-86 139t-144 45q-260 0 -260 -353z" />
<glyph unicode="&#xf5;" horiz-adv-x="1127" d="M85 512q0 272 127.5 419.5t365.5 147.5q222 0 343 -139.5t121 -394.5q0 -272 -128.5 -418.5t-365.5 -146.5q-147 0 -251 62t-158 181.5t-54 288.5zM186 1328v20l149 177l26 9q41 -5 119 -26t145 -38.5t91 -17.5q8 0 16.5 2.5t17.5 9t17 13t19.5 18t19.5 20.5t22 24.5 t23 25.5h23l69 -74v-20l-149 -177l-23 -12q-42 6 -119.5 27.5t-144.5 40t-91 18.5q-12 0 -24 -5.5t-26 -18t-25 -24t-30 -32.5t-31 -34h-24zM302 562q0 -216 65 -319t195 -103t194.5 86.5t64.5 266.5q0 144 -29 238t-86 139t-144 45q-260 0 -260 -353z" />
<glyph unicode="&#xf7;" d="M83 539l13 144h943l18 -15l-13 -145h-945zM473 208q0 57 32 91t89 34q52 0 82.5 -31t30.5 -84q0 -57 -32.5 -90.5t-88 -33.5t-84.5 29.5t-29 84.5zM473 1002q0 56 32 89t89 33q52 0 82.5 -31t30.5 -84q0 -38 -14.5 -65.5t-41.5 -42.5t-64 -15q-55 0 -84.5 30.5 t-29.5 85.5z" />
<glyph unicode="&#xf8;" horiz-adv-x="1127" d="M85 512q0 272 127.5 419.5t365.5 147.5q96 0 175 -28l121 231l115 -57l11 -25l-117 -223q159 -139 159 -432q0 -272 -128.5 -418.5t-365.5 -146.5q-90 0 -169 24l-145 -277l-124 60l-7 23l142 271q-160 136 -160 431zM302 562q0 -180 46 -284l322 615q-47 22 -108 22 q-260 0 -260 -353zM459 160q46 -20 103 -20q130 0 194.5 86.5t64.5 266.5q0 182 -44 278z" />
<glyph unicode="&#xf9;" horiz-adv-x="1180" d="M151 1042l232 20l-11 -701q-2 -86 38.5 -134t119.5 -48q126 0 250 117v746l222 20l-15 -817q0 -42 13.5 -58.5t47.5 -16.5q28 0 71 9l21 -17l-23 -127q-66 -41 -145 -51q-70 7 -112.5 49.5t-56.5 113.5h-19q-134 -121 -274 -160q-174 0 -265 80t-89 229l4 286zM337 1497 l87 125l23 2q150 -143 393 -339l-60 -92l-23 -2q-234 152 -415 284z" />
<glyph unicode="&#xfa;" horiz-adv-x="1180" d="M151 1042l232 20l-11 -701q-2 -86 38.5 -134t119.5 -48q126 0 250 117v746l222 20l-15 -817q0 -42 13.5 -58.5t47.5 -16.5q28 0 71 9l21 -17l-23 -127q-66 -41 -145 -51q-70 7 -112.5 49.5t-56.5 113.5h-19q-134 -121 -274 -160q-174 0 -265 80t-89 229l4 286zM399 1285 q243 196 393 339l22 -2l88 -125l-5 -22q-182 -132 -415 -284l-23 2z" />
<glyph unicode="&#xfb;" horiz-adv-x="1180" d="M151 1042l232 20l-11 -701q-2 -86 38.5 -134t119.5 -48q126 0 250 117v746l222 20l-15 -817q0 -42 13.5 -58.5t47.5 -16.5q28 0 71 9l21 -17l-23 -127q-66 -41 -145 -51q-70 7 -112.5 49.5t-56.5 113.5h-19q-134 -121 -274 -160q-174 0 -265 80t-89 229l4 286zM264 1294 q124 118 298 314h60q171 -196 295 -314l-61 -92h-24q-164 144 -241 229q-71 -77 -240 -229h-25z" />
<glyph unicode="&#xfc;" horiz-adv-x="1180" d="M151 1042l232 20l-11 -701q-2 -86 38.5 -134t119.5 -48q126 0 250 117v746l222 20l-15 -817q0 -42 13.5 -58.5t47.5 -16.5q28 0 71 9l21 -17l-23 -127q-66 -41 -145 -51q-70 7 -112.5 49.5t-56.5 113.5h-19q-134 -121 -274 -160q-174 0 -265 80t-89 229l4 286zM282 1401 q0 38 15 66t43 43t65 15q56 0 86 -30.5t30 -86.5q0 -59 -32.5 -92.5t-89.5 -33.5t-87 31t-30 88zM659 1401q0 57 33 90.5t90 33.5q55 0 85 -30.5t30 -86.5q0 -59 -32.5 -92.5t-89.5 -33.5t-86.5 31t-29.5 88z" />
<glyph unicode="&#xfe;" horiz-adv-x="1182" d="M175 -424l13 866l-13 1150l234 19l-10 -700h14q37 31 69 54.5t65 42t66.5 33t74.5 27.5q200 0 305.5 -132.5t105.5 -373.5q0 -279 -136 -430.5t-376 -151.5q-96 0 -188 33l4 -437h-228zM392 466l2 -262q103 -64 202 -64q134 0 210 97.5t74 294.5q-3 167 -61 257.5 t-167 90.5q-63 0 -124.5 -32.5t-131.5 -103.5z" />
<glyph unicode="&#xff;" horiz-adv-x="996" d="M-50 -293l9 24q160 31 263.5 93.5t178.5 175.5l-390 1053l228 11l34 -149l224 -667h17l224 645l37 164h209l-362 -1002q-74 -208 -199 -321t-345 -172h-21q-62 59 -107 145zM202 1401q0 57 33.5 90.5t90.5 33.5q55 0 84.5 -30.5t29.5 -86.5q0 -59 -32 -92.5t-89 -33.5 t-87 31t-30 88zM578 1401q0 57 33.5 90.5t90.5 33.5q55 0 84.5 -30.5t29.5 -86.5q0 -59 -31.5 -92.5t-88.5 -33.5q-38 0 -64.5 14t-40 40.5t-13.5 64.5z" />
<glyph unicode="&#x152;" horiz-adv-x="1967" d="M78 725q0 368 192.5 571.5t541.5 203.5q77 0 207.5 -13.5t193.5 -13.5h693l16 -21l-18 -181l-335 9h-296l-4 -431l254 -5l257 7l14 -19l-19 -180l-267 7l-245 -5v-199l3 -262l275 -3l363 12l16 -21l-18 -181h-689q-70 1 -219 -13.5t-223 -14.5q-330 0 -511.5 198 t-181.5 555zM321 738q0 -292 115.5 -434t357.5 -142q59 0 117.5 7.5t86.5 16.5q28 12 40.5 32t12.5 58l-9 908q-2 42 -9.5 62.5t-23.5 29.5q-23 12 -85 20.5t-132 8.5q-238 0 -354.5 -140t-116.5 -427z" />
<glyph unicode="&#x153;" horiz-adv-x="1770" d="M76 516q0 267 127 413.5t355 146.5q254 0 366 -196q63 96 160.5 146t224.5 50q182 0 282.5 -108t100.5 -298q0 -72 -6 -114l-42 -37h-637q2 -115 36.5 -194.5t104 -122t171.5 -42.5q71 0 152.5 25.5t156.5 70.5l24 -13l-28 -186q-158 -77 -321 -77q-267 0 -388 199 q-119 -199 -383 -199q-145 0 -247.5 62t-155.5 182.5t-53 291.5zM302 562q0 -216 65 -319t197 -103q131 0 195 86.5t64 266.5q0 144 -29 238t-86 139t-144 45q-262 0 -262 -353zM1018 659l464 13l4 28q0 108 -51 161.5t-139 53.5q-73 0 -130 -29.5t-94.5 -87t-53.5 -139.5z " />
<glyph unicode="&#x178;" horiz-adv-x="1239" d="M26 1473h252l29 -92l294 -617h18l322 612l36 97h251l-515 -957l-2 -94l9 -422h-238l15 422l-2 92zM302 1817q0 57 34 90.5t91 33.5q55 0 84.5 -31t29.5 -87q0 -59 -32 -92t-89 -33q-28 0 -50.5 8t-37 23t-22.5 37t-8 51zM679 1816.5q0 57.5 33.5 91t90.5 33.5 q55 0 84.5 -31t29.5 -87q0 -59 -32 -92t-89 -33t-87 30.5t-30 88z" />
<glyph unicode="&#x2c6;" horiz-adv-x="891" d="M119 1294q128 122 299 314h57q177 -201 298 -314l-62 -92h-23q-163 143 -241 227q-72 -75 -241 -227h-25z" />
<glyph unicode="&#x2dc;" horiz-adv-x="891" d="M66 1328v20l150 177l25 9q49 -6 187.5 -44t167.5 -38q8 0 16.5 2.5t18 9t17 13t19 18t19.5 20.5t22 24.5t23 25.5h24l68 -74v-20l-149 -177l-22 -12q-49 7 -187.5 46.5t-168.5 39.5q-12 0 -24 -5.5t-26 -18t-24.5 -24t-29.5 -32.5t-32 -34h-22z" />
<glyph unicode="&#x2000;" horiz-adv-x="1020" />
<glyph unicode="&#x2001;" horiz-adv-x="2040" />
<glyph unicode="&#x2002;" horiz-adv-x="1020" />
<glyph unicode="&#x2003;" horiz-adv-x="2040" />
<glyph unicode="&#x2004;" horiz-adv-x="680" />
<glyph unicode="&#x2005;" horiz-adv-x="510" />
<glyph unicode="&#x2006;" horiz-adv-x="340" />
<glyph unicode="&#x2007;" horiz-adv-x="340" />
<glyph unicode="&#x2008;" horiz-adv-x="255" />
<glyph unicode="&#x2009;" horiz-adv-x="408" />
<glyph unicode="&#x200a;" horiz-adv-x="113" />
<glyph unicode="&#x2010;" horiz-adv-x="701" d="M64 479v147l551 81l20 -19v-147l-550 -82z" />
<glyph unicode="&#x2011;" horiz-adv-x="701" d="M64 479v147l551 81l20 -19v-147l-550 -82z" />
<glyph unicode="&#x2012;" horiz-adv-x="701" d="M64 479v147l551 81l20 -19v-147l-550 -82z" />
<glyph unicode="&#x2013;" horiz-adv-x="1084" d="M-35 525l15 145h1123l16 -18l-11 -145h-1126z" />
<glyph unicode="&#x2014;" horiz-adv-x="2091" d="M-37 525l11 145h2141l19 -18l-15 -145h-2141z" />
<glyph unicode="&#x2018;" horiz-adv-x="418" d="M76 1147q0 157 185 335l85 -57l5 -19q-97 -100 -97 -193q0 -97 90 -142v-20q-52 -47 -142 -95q-66 30 -96 76t-30 115z" />
<glyph unicode="&#x2019;" horiz-adv-x="418" d="M78 1030q94 101 94 193q0 97 -89 142v20q62 55 142 95q65 -30 95.5 -75.5t30.5 -113.5q0 -157 -186 -337l-84 57z" />
<glyph unicode="&#x201a;" horiz-adv-x="524" d="M76 -186q126 103 126 212q0 67 -71 121v21q84 54 167 75q98 -71 98 -172q0 -170 -243 -344l-77 69v18z" />
<glyph unicode="&#x201c;" horiz-adv-x="735" d="M64 1145q0 157 186 337l85 -57l2 -19q-94 -101 -94 -193q0 -97 90 -142v-20q-62 -55 -143 -95q-43 20 -71 47t-41.5 62t-13.5 80zM399 1145q0 157 186 337l85 -57l2 -19q-94 -101 -94 -193q0 -97 90 -142v-20q-62 -55 -143 -95q-43 20 -71 47t-41.5 62t-13.5 80z" />
<glyph unicode="&#x201d;" horiz-adv-x="742" d="M71 1030q97 101 97 193q0 49 -21.5 83.5t-70.5 58.5v20q70 59 142 95q33 -15 57 -33.5t39 -42t22.5 -51.5t7.5 -62q0 -157 -186 -337l-84 57zM396 1030q95 101 95 193q0 97 -90 142v20q62 55 142 95q66 -30 96.5 -75.5t30.5 -113.5q0 -157 -186 -337l-85 57z" />
<glyph unicode="&#x201e;" horiz-adv-x="856" d="M76 -186q126 103 126 212q0 67 -71 121v21q84 54 167 75q98 -71 98 -172q0 -170 -243 -344l-77 69v18zM409 -186q125 103 125 212q0 67 -70 121v21q83 53 164 75q99 -71 99 -172q0 -172 -241 -344l-77 69v18z" />
<glyph unicode="&#x2022;" horiz-adv-x="604" d="M151 548q0 71 42 113.5t114 42.5q44 0 76.5 -17t49 -49.5t16.5 -77.5q0 -74 -41.5 -117.5t-111.5 -43.5q-46 0 -78.5 17.5t-49.5 51t-17 80.5z" />
<glyph unicode="&#x2026;" horiz-adv-x="1379" d="M124 114q0 30 9 55t26 42.5t42 27t55 9.5q39 0 66.5 -15.5t42 -43.5t14.5 -67q0 -62 -35.5 -98.5t-95.5 -36.5q-59 0 -91.5 33.5t-32.5 93.5zM553 114q0 40 16 70.5t46 47t70 16.5q58 0 90.5 -33.5t32.5 -92.5q0 -62 -35.5 -98.5t-96.5 -36.5q-59 0 -91 33t-32 94z M979 114q0 61 35.5 97.5t97.5 36.5q57 0 89.5 -33.5t32.5 -92.5q0 -62 -35 -98.5t-96 -36.5q-60 0 -92 33t-32 94z" />
<glyph unicode="&#x202f;" horiz-adv-x="408" />
<glyph unicode="&#x2039;" horiz-adv-x="538" d="M50 495v41l324 405l112 -63l2 -25l-263 -332l263 -335l-2 -26l-112 -59z" />
<glyph unicode="&#x203a;" horiz-adv-x="549" d="M59 190l267 333l-267 333l5 24l111 63l322 -395v-43l-322 -402l-111 62z" />
<glyph unicode="&#x205f;" horiz-adv-x="510" />
<glyph unicode="&#x20ac;" horiz-adv-x="1095" d="M30 381l9 112h151q-2 20 -2 63q0 48 2 70h-151l-9 14l9 113h167q45 197 178.5 301t346.5 104q161 0 304 -75l-37 -159l-16 -4q-56 36 -125 57t-137 21q-82 0 -144.5 -28t-103.5 -82.5t-61 -134.5h390l13 -12l-11 -115h-411v-53q0 -54 2 -80h407l13 -14l-11 -112h-385 q70 -220 298 -220q45 0 94.5 9.5t98.5 28.5t89 45l20 -14l-16 -152q-138 -77 -295 -77q-209 0 -335 96.5t-166 283.5h-167z" />
<glyph unicode="&#x2122;" horiz-adv-x="1341" d="M59 1381l7 90h418l9 -12l-9 -89l-108 4h-39l-4 -273l4 -173h-121l7 162l-5 284h-39l-113 -4zM578 928l59 543h145l26 -81l89 -245h7l98 243l28 83h139l54 -543h-111l-9 164l-20 195h-10l-130 -303h-96l-120 303h-7l-22 -182l-15 -177h-105z" />
<glyph unicode="&#x25fc;" horiz-adv-x="1066" d="M0 0v1066h1066v-1066h-1066z" />
</font>
</defs>
</svg>
