<?xml version="1.0" standalone="no"?>
<!DOCTYPE svg PUBLIC "-//W3C//DTD SVG 1.1//EN" "http://www.w3.org/Graphics/SVG/1.1/DTD/svg11.dtd" >
<svg xmlns="http://www.w3.org/2000/svg">
<metadata></metadata>
<defs>
<font id="nadia_serifnormal" horiz-adv-x="1011" >
<font-face units-per-em="2048" ascent="1638" descent="-410" />
<missing-glyph horiz-adv-x="537" />
<glyph horiz-adv-x="2048" />
<glyph horiz-adv-x="2048" />
<glyph unicode="&#xd;" horiz-adv-x="537" />
<glyph unicode=" "  horiz-adv-x="537" />
<glyph unicode="&#x09;" horiz-adv-x="537" />
<glyph unicode="&#xa0;" horiz-adv-x="537" />
<glyph unicode="!" horiz-adv-x="444" d="M142 116q0 52 36.5 88t88.5 36q51 0 87.5 -36t36.5 -88q0 -51 -36.5 -87.5t-87.5 -36.5q-52 0 -88.5 36t-36.5 88zM176 1492q0 27 29 26h122q31 1 31 -26l-31 -938q-33 -57 -60 -57q-50 0 -60 60z" />
<glyph unicode="%" horiz-adv-x="1625" d="M134 1192q0 163 91 252q75 73 172 72q95 0 168 -72q90 -89 90 -252q0 -172 -80 -259q-69 -72 -178 -72q-110 0 -180 72q-83 87 -83 259zM259 1190q0 -209 134 -209q136 0 136 209q0 107 -49 162q-38 42 -85 42q-52 0 -87 -42q-49 -53 -49 -162zM416 69l682 1414 q25 33 58 33q13 0 25 -6q43 -16 43 -75l-682 -1415q-31 -37 -64 -36q-12 0 -22 4q-44 18 -40 81zM968 308q0 166 94 255q72 70 169 70t169 -70q92 -89 92 -255q0 -172 -83 -256q-69 -75 -178 -75q-110 0 -181 75q-82 84 -82 256zM1094 306q0 -207 135 -207q137 0 137 209 q0 105 -50 162q-39 43 -85 43q-51 0 -90 -41q-47 -54 -47 -166z" />
<glyph unicode="&#x26;" horiz-adv-x="1202" d="M103 369q0 167 128 302q46 49 176 138q-130 158 -136 166q-69 101 -68 202q0 177 126 271q103 79 259 78q120 0 217 -85q112 -93 111 -235q0 -154 -124 -286q-56 -62 -182 -146l358 -429q99 154 100 275v29q0 26 24 26h85q25 0 25 -36q0 -199 -143 -395l137 -169 q8 -13 8 -17q0 -11 -8 -17l-59 -51q-16 -10 -18 -10q-16 0 -25 10l-130 152q-201 -165 -414 -165q-187 0 -312 100q-134 107 -135 292zM242 383q0 -124 94 -201t235 -77q150 1 308 135l-393 476q-44 -31 -85 -61q-69 -53 -107 -109q-52 -76 -52 -163zM339 1204 q0 -91 83 -209q14 -18 103 -122q135 95 156 116q105 101 105 215q0 95 -72 155q-62 52 -147 52t-151 -55q-77 -59 -77 -152zM561 505z" />
<glyph unicode="(" horiz-adv-x="582" d="M62 720q0 325 147 622q107 215 221 312q20 15 40 7l61 -31q30 -14 9 -37q-6 -10 -25 -32q-128 -157 -182 -268q-122 -249 -122 -575q0 -231 91 -484.5t223 -389.5q18 -20 -4 -30l-63 -31q-24 -12 -38 6q-114 99 -215 312q-142 294 -143 619z" />
<glyph unicode=")" horiz-adv-x="582" d="M62 1593q-21 23 7 37l63 31q18 9 38 -7q116 -97 223 -312q147 -297 147 -622t-143 -619q-101 -213 -215 -312q-14 -18 -40 -6l-61 31q-25 10 -4 30q140 143 229 408q85 247 85 466q0 255 -75 463q-53 148 -148 277q-52 67 -106 135z" />
<glyph unicode="*" horiz-adv-x="1034" d="M182 1133q0 4 6 23l17 58q6 23 18 23q2 0 19 -6l226 -85l-8 208q-2 52 -2 40q0 23 20 23h79q20 0 20 -23q0 12 -2 -40l-8 -208l223 83q16 6 19 6q10 0 18 -23l21 -52q4 -9 6 -23q0 -10 -23 -18l-233 -67l150 -191q11 -21 12 -19q0 -8 -18 -21l-51 -41q-10 -8 -20 -8 q-8 0 -20 16l-134 207l-134 -201q-10 -16 -19 -16q-10 0 -21 8l-49 37q-16 12 -17 21q0 -2 11 19l148 189l-231 63q-23 8 -23 18z" />
<glyph unicode="+" horiz-adv-x="762" d="M95 584q0 49 59 57h221v226q0 55 57 55q58 0 60 -55v-226h222q58 -8 58 -57q0 -52 -58 -59h-224v-219q4 -23 -14 -41.5t-42 -18.5q-23 0 -41 16.5t-18 39.5v223h-221q-21 0 -40 18t-19 41z" />
<glyph unicode="," horiz-adv-x="444" d="M156 118q6 52 46 83.5t90 27.5q49 -6 83 -46.5t32 -89.5q-6 -182 -165 -277q-45 -23 -60 -17q-18 8 6 29q103 83 112 164q-8 -4 -45 -6q-50 6 -76.5 43.5t-22.5 88.5z" />
<glyph unicode="-" horiz-adv-x="825" d="M83 584q0 49 57 57h545q57 -8 57 -57q0 -48 -57 -59h-545q-57 10 -57 59z" />
<glyph unicode="." horiz-adv-x="444" d="M156 116q0 52 35.5 88t87.5 36q51 0 87.5 -36t36.5 -88q0 -51 -36 -87.5t-88 -36.5t-87.5 36t-35.5 88z" />
<glyph unicode="/" horiz-adv-x="942" d="M39 -211l770 1911q20 35 54 35q10 0 20 -4q45 -16 33 -75l-770 -1911q-23 -37 -55 -37q-10 0 -20 4q-46 18 -32 77z" />
<glyph unicode="0" horiz-adv-x="1034" d="M56 755q0 792 459 792q464 0 464 -792q0 -783 -462 -784q-252 0 -361 213q-99 188 -100 571zM203 766q0 -675 310 -675q316 0 316 675q0 659 -312 659q-314 0 -314 -659z" />
<glyph unicode="1" horiz-adv-x="835" d="M116 1268q0 43 58 72l339 191v-1428h184q55 -2 55 -51q0 -48 -55 -52h-513q-60 4 -60 52q0 49 60 51h197v1223l-209 -114q-56 8 -56 56z" />
<glyph unicode="2" horiz-adv-x="1034" d="M103 58q0 35 25 70l412 571q112 157 153 234q69 124 69 219q0 125 -64.5 196t-178.5 71q-192 0 -248 -178q-8 -55 -60 -55q-53 0 -53 63q0 117 107 202.5t258 85.5q107 0 201 -54q172 -95 172 -329q0 -183 -249 -527l-372 -511h598q57 0 58 -58q0 -60 -62 -58h-703 q-62 25 -63 58z" />
<glyph unicode="3" horiz-adv-x="1034" d="M85 126q-14 20 0 38l47 55q2 0 8 4q13 6 24 -2q72 -66 149.5 -91t199.5 -25q105 0 197.5 92.5t92.5 218.5q0 195 -158 271q-86 43 -201 43h-88q-28 0 -27 28v92q0 2 3 12.5t17 10.5h95q107 0 204.5 79.5t97.5 188.5q0 127 -71 207q-62 69 -142 71q-105 0 -171 -31 q-32 -14 -120 -85q-20 -16 -29 2l-49 51q-19 17 -2 38q121 149 371 145q112 -2 205 -66q152 -105 152 -340q0 -118 -87 -206q-43 -43 -156 -112q137 -60 184 -101q118 -103 118 -296q0 -182 -142 -315q-132 -124 -298 -123q-304 0 -424 146z" />
<glyph unicode="4" horiz-adv-x="1034" d="M67 505q0 33 16 62l430 925q23 45 60 45q25 0 46.5 -17.5t21.5 -40.5q0 -15 -8 -27l-434 -919h421v268q0 29 25 28h81q25 0 24 -26v-270h160q58 -4 58 -53q0 -48 -56 -56h-162v-397q0 -31 -24 -31h-81q-25 0 -25 29v397l-482 2q-14 0 -26 4q-31 12 -39 42q-6 16 -6 35z " />
<glyph unicode="5" horiz-adv-x="1034" d="M85 126q-14 20 0 38l47 55q2 0 8 4q13 6 22 -2h2q78 -71 130 -91q62 -25 178 -25q142 0 238.5 101.5t96.5 237.5q0 342 -367 342q-51 0 -111 -6l-120 -18q-31 -4 -31 30l2 679q0 47 47 45h600q56 -25 56 -62q0 -49 -56 -58h-509v-490q71 10 138 10q246 0 375 -134 q118 -122 118 -334q0 -191 -134 -328q-140 -140 -347 -140q-263 0 -383 146z" />
<glyph unicode="6" horiz-adv-x="1034" d="M103 588q0 335 94 583q138 368 446 368q127 0 194 -43q20 -14 13 -36l-27 -66q0 4 -11 -5t-16 -7q-27 8 -54 18q-43 14 -84 15q-206 0 -325 -248q-87 -184 -87 -346q28 50 97 93q95 60 201 61q135 0 244 -100q144 -133 145 -385q0 -221 -114 -365.5t-304 -144.5 q-195 0 -303.5 165t-108.5 443zM257 474q0 -162 77.5 -267.5t186.5 -105.5q110 0 186 94q87 107 87 293q0 161 -71.5 264.5t-187.5 103.5q-126 0 -202 -112.5t-76 -269.5z" />
<glyph unicode="7" horiz-adv-x="977" d="M62 1454q0 54 58 62h749q47 2 47 -45q0 -13 -18 -58l-536 -1297q-13 -27 -33 -69q-31 -45 -74 -45q-58 0 -58 50q0 25 12 51l527 1293h-616q-57 25 -58 58z" />
<glyph unicode="8" horiz-adv-x="1034" d="M83 391q0 316 281 430q-218 110 -218 329q0 249 168 342q85 45 205 45q118 0 205 -47q168 -93 168 -340q0 -185 -237 -331q296 -128 296 -438q0 -184 -122 -292.5t-310 -111.5q-195 0 -315.5 112t-120.5 302zM229 389q0 -134 76 -213t212 -79q130 0 209 76.5t79 205.5 q0 136 -47 219q-38 64 -113 107q-63 35 -128 71q-159 -89 -188 -116q-99 -95 -100 -271zM290 1158q0 -181 229 -281q114 51 166 106q63 70 63 175q0 143 -75 212q-60 53 -156 53q-227 0 -227 -265zM364 821z" />
<glyph unicode="9" horiz-adv-x="1034" d="M107 1014q0 225 117 375t305 150q192 0 296 -173q102 -164 102 -446q0 -385 -77 -595q-128 -345 -469 -345q-126 0 -195 43q-20 12 -12 35l27 66q0 -6 11 3t15 9q28 -10 55 -18q43 -14 84 -15q246 0 352 251q62 148 62 331q-30 -54 -91 -95q-91 -60 -209 -61 q-114 0 -223 102q-149 137 -150 383zM250 1022q0 -161 72.5 -268t188.5 -107q124 0 192 119q61 105 61 268q0 166 -66.5 274.5t-174.5 108.5q-110 0 -186 -99q-87 -110 -87 -296z" />
<glyph unicode=":" horiz-adv-x="444" d="M156 116q0 52 35.5 88t87.5 36q51 0 87.5 -36t36.5 -88q0 -51 -36 -87.5t-88 -36.5t-87.5 36t-35.5 88zM156 695q0 51 35.5 87.5t87.5 36.5q51 0 87.5 -36.5t36.5 -87.5q0 -52 -36 -88t-88 -36t-87.5 36t-35.5 88z" />
<glyph unicode=";" horiz-adv-x="444" d="M156 118q6 52 46 83.5t90 27.5q49 -6 83 -46.5t32 -89.5q-6 -182 -165 -277q-45 -23 -60 -17q-18 8 6 29q103 83 112 164q-8 -4 -45 -6q-50 6 -76.5 43.5t-22.5 88.5zM156 681q0 51 35.5 87.5t87.5 36.5q51 0 87.5 -36.5t36.5 -87.5q0 -52 -36 -88t-88 -36t-87.5 36 t-35.5 88z" />
<glyph unicode="&#x3c;" horiz-adv-x="596" d="M62 590q0 10 11 20l347 436q12 16 20 16l20 -8l55 -30q18 -10 18 -21q0 -2 -8 -18l-312 -395l312 -393q10 -12 10 -19q0 -8 -20 -20l-55 -32q-11 -6 -20 -6q-12 0 -20 14l-347 437q-10 10 -11 19z" />
<glyph unicode="=" horiz-adv-x="762" d="M103 466q0 47 59 57h543q58 -10 59 -57q0 -48 -59 -59h-543q-58 10 -59 59zM103 671q0 47 59 55h543q58 -8 59 -55q0 -50 -59 -61h-543q-58 12 -59 61z" />
<glyph unicode="&#x3e;" horiz-adv-x="596" d="M62 178q0 6 11 19l312 393l-312 395l-9 18q0 10 19 21l55 30q19 6 20 8q8 0 20 -16l347 -436q10 -10 10 -20q0 -8 -10 -19l-347 -437q-8 -14 -20 -14q-9 0 -20 6l-55 32q-20 12 -21 20z" />
<glyph unicode="?" horiz-adv-x="853" d="M83 1372q-14 16 0 33q118 132 333 130q105 -2 200 -68q156 -107 156 -334q0 -157 -103 -268q-87 -89 -195 -113l-14 -221q-4 -57 -59 -57q-56 0 -58 59l-12 290q131 0 221.5 92t90.5 224q0 129 -82 211q-71 71 -145 71q-95 2 -155 -27q-30 -14 -107 -74q-19 -16 -28 0z M282 116q0 52 36 88t87 36q52 0 88 -36t36 -88q0 -51 -35.5 -87.5t-88.5 -36.5q-51 0 -87 36t-36 88z" />
<glyph unicode="@" horiz-adv-x="1678" d="M85 275q0 353 244 590q236 227 577 227q316 0 511 -190q178 -178 178 -434q0 -243 -120 -373q-115 -120 -306 -120q-101 0 -154 50t-53 123q0 15 2 30h-4q-32 -79 -106 -137q-82 -66 -177 -66q-195 0 -195 254q0 215 112 352q118 148 324 149q116 0 242 -27l-68 -376 q-8 -49 -8 -87q0 -138 114 -139q112 0 186 87q85 99 85 272q0 215 -147 357q-159 156 -424 156q-273 0 -472 -193q-205 -199 -205 -490q0 -271 162 -432q163 -168 448 -168q133 0 286 45q27 6 27 -12v-83q0 -33 -27 -37q-138 -39 -306 -39q-337 0 -534 198 q-192 192 -192 513zM606 248q0 -153 103 -153q89 0 162.5 115t113.5 309l18 95q-39 12 -115 13q-126 0 -209 -133q-73 -114 -73 -246z" />
<glyph unicode="A" horiz-adv-x="1532" d="M45 52q0 47 56 51h151l425 1389q20 51 63 51q58 0 69 -47l474 -1393h148q57 -4 57 -51q0 -48 -59 -52h-440q-58 4 -58 52q0 47 58 51h159l-122 361h-529l-112 -361h159q58 -4 58 -51q0 -48 -58 -52h-441q-58 4 -58 52zM521 573h472l-251 716z" />
<glyph unicode="B" horiz-adv-x="1204" d="M45 54q0 47 56 53h154v1302h-152q-58 6 -58 51q0 50 58 56h456q477 0 477 -368q0 -146 -85 -246q-68 -81 -161 -101q322 -62 323 -367q0 -177 -104 -292q-132 -142 -320 -142h-586q-58 6 -58 54zM391 110h207q205 0 300 101q73 79 73 227q0 292 -414 292h-166v-620z M391 846h136q371 0 371 300q0 178 -170 238q-70 23 -169 23h-168v-561z" />
<glyph unicode="C" horiz-adv-x="1259" d="M45 766q0 450 277 657q158 116 340 116q300 0 467 -155v-238q-47 -59 -55 -60q-50 0 -54 58v178q-93 58 -108 64q-89 35 -257 35q-142 0 -258 -101q-196 -173 -196 -561q0 -367 161 -542q116 -126 275 -126q217 0 379 104v174q4 55 54 55q47 0 55 -58v-240 q-53 -49 -170 -95q-153 -59 -318 -60q-248 0 -406 181q-186 211 -186 614z" />
<glyph unicode="D" horiz-adv-x="1352" d="M45 58q0 47 56 54h151v1293h-149q-58 8 -58 53q0 50 58 58h432q286 0 476 -168q234 -207 234 -604q0 -357 -197 -556q-185 -188 -504 -188h-441q-58 10 -58 58zM391 112h157q234 0 381 140q174 167 174 500q0 336 -195 512q-154 140 -373 141h-144v-1293z" />
<glyph unicode="E" horiz-adv-x="1077" d="M45 58q0 55 56 56h156v1289h-154q-58 0 -58 53q0 60 58 60h908v-267q-8 -57 -56 -57q-49 0 -57 55v153l-505 3v-566h298v100q10 56 57 56q48 0 55 -58v-286q-8 -57 -57 -57q-47 0 -55 57v79h-298v-614h536v153q23 57 60 58q47 0 55 -58v-267h-941q-23 0 -40.5 17.5 t-17.5 40.5z" />
<glyph unicode="F" horiz-adv-x="1048" d="M45 1458q0 58 58 58h925v-267q-8 -57 -55 -57q-50 0 -59 55v153l-521 3v-566h296v100q10 56 57 56q48 0 55 -58v-286q-8 -57 -57 -57q-47 0 -55 57v79h-296v-625h153q58 -4 58 -51q0 -48 -58 -52h-443q-56 4 -56 52q0 47 56 51h156v1300h-156q-58 0 -58 55z" />
<glyph unicode="G" horiz-adv-x="1275" d="M45 762q0 384 222 602q177 173 397 173q306 0 471 -165v-239q-8 -59 -55 -59q-50 0 -54 57v178q-87 60 -99 67q-95 41 -263 41q-164 0 -298 -142q-170 -184 -169 -525q0 -363 161 -535q118 -124 277 -124q286 0 403 207v239h-211q-55 0 -55 59q0 49 55 55h344l2 -610 q0 -63 -66 -64q-69 0 -69 58v93q-136 -157 -407 -157q-248 0 -404 177q-182 210 -182 614z" />
<glyph unicode="H" horiz-adv-x="1423" d="M45 52q0 47 56 51h151v1310h-149q-58 4 -58 49q0 50 58 54h441q58 -4 58 -54q0 -45 -58 -49h-153v-571h633v571h-153q-56 4 -56 49q0 50 56 54h442q58 -4 59 -54q0 -45 -59 -49h-146v-1310h144q60 -4 61 -51q0 -48 -59 -52h-442q-56 4 -56 52q0 47 56 51h153v619h-633 v-619h153q58 -4 58 -51q0 -48 -58 -52h-441q-58 4 -58 52z" />
<glyph unicode="I" horiz-adv-x="642" d="M45 52q0 47 56 51h151v1310h-149q-58 4 -58 49q0 50 58 54h443q56 -4 56 -54q0 -45 -56 -49h-153v-1310h153q56 -4 56 -51q0 -48 -56 -52h-443q-58 4 -58 52z" />
<glyph unicode="J" horiz-adv-x="808" d="M45 89l34 55q10 28 31 14q79 -64 167 -65q59 0 96 47q33 42 32 93q2 95 2 162v1018h-148q-58 4 -58 49q0 50 58 54h442q57 -4 57 -54q0 -45 -57 -49h-153v-1026q0 -180 -29 -261q-57 -151 -233 -151q-95 0 -226 72q-20 13 -20 27q0 7 5 15z" />
<glyph unicode="K" horiz-adv-x="1401" d="M45 52q0 47 56 51h154v1310h-152q-58 4 -58 49q0 50 58 54h441q58 -4 58 -54q0 -45 -58 -49h-153v-608l521 608h-132q-58 4 -58 49q0 50 58 54h428q58 -4 58 -54q0 -45 -58 -49h-142l-456 -530l513 -780h152q57 -4 57 -51q0 -48 -57 -52h-239l-513 784l-132 -162v-519 h153q58 -4 58 -51q0 -48 -58 -52h-441q-58 4 -58 52z" />
<glyph unicode="L" horiz-adv-x="1050" d="M45 58q0 47 56 58h154v1297h-152q-58 4 -58 49q0 50 58 54h441q58 -4 58 -54q0 -45 -58 -49h-151v-1297h531v151q23 57 61 58q47 0 55 -58v-267h-937q-58 10 -58 58z" />
<glyph unicode="M" horiz-adv-x="1761" d="M45 52q0 47 56 51h156l61 1310h-152q-58 4 -59 49q0 50 59 54h284h63q25 -4 31 -26l342 -1163l334 1163q6 23 31 26h62h286q57 -4 57 -54q0 -45 -57 -49h-151l58 -1310h152q56 -4 57 -51q0 -48 -59 -52h-440q-58 4 -58 52q0 47 58 51h154l-57 1241l-356 -1208 q-20 -51 -63 -51q-58 0 -69 47l-375 1214l-59 -1243h153q58 -4 58 -51q0 -48 -58 -52h-441q-58 4 -58 52z" />
<glyph unicode="N" horiz-adv-x="1443" d="M45 52q0 47 56 51h156v1310h-154q-58 4 -58 49q0 50 58 54h282q81 0 93 -26l570 -1157l-2 1080h-154q-56 4 -57 49q0 50 57 54h442q58 -4 58 -54q0 -45 -58 -49h-148v-1384q0 -51 -63 -52q-43 0 -69 48l-663 1315v-1237h153q58 -4 58 -51q0 -48 -58 -52h-441 q-58 4 -58 52z" />
<glyph unicode="O" horiz-adv-x="1277" d="M62 755q0 356 161.5 574t415.5 218q241 0 397 -186q180 -213 180 -606q0 -357 -156 -570.5t-421 -213.5q-268 0 -422.5 212t-154.5 572zM213 766q0 -330 136 -516q119 -159 288 -159q174 0 292 159q135 184 135 516q0 329 -135 507q-113 152 -288 152h-2 q-175 0 -292 -152q-134 -178 -134 -507z" />
<glyph unicode="P" horiz-adv-x="1038" d="M45 52q0 47 56 51h151v1306h-149q-58 6 -58 51q0 50 58 56h437q249 0 378 -132q100 -103 100 -255q0 -203 -160 -318q-128 -91 -327 -91h-140v-617h153q58 -4 58 -51q0 -48 -58 -52h-441q-58 4 -58 52zM391 835h130q132 0 227 55q131 74 131 235q0 170 -159 243 q-87 39 -189 39h-140v-572z" />
<glyph unicode="Q" horiz-adv-x="1292" d="M45 755q0 356 162 574t415 218q241 0 398 -186q180 -213 180 -606q0 -496 -290 -697q35 -114 160 -114h2q53 0 126 50q20 14 41 14q44 0 44 -43q0 -24 -32 -48q-84 -73 -179 -73q-203 0 -249 166q-91 -39 -201 -39q-256 0 -416.5 215.5t-160.5 568.5zM192 766 q0 -383 191 -567q0 56 55 111q73 69 186 69q118 0 193 -71q60 -53 60 -105q173 146 173 563q0 329 -136 511q-115 156 -290 156h-2q-176 0 -293 -156q-136 -182 -137 -511zM462 134q80 -49 160 -49q87 0 170 51q0 56 -47.5 102t-120.5 46q-68 0 -115 -42.5t-47 -107.5z" />
<glyph unicode="R" horiz-adv-x="1209" d="M45 52q0 47 56 51h154v1306h-152q-58 6 -58 51q0 50 58 56h441q216 0 331.5 -97t115.5 -280q0 -140 -69 -239q-95 -136 -306 -168l389 -629h128q58 -4 59 -51q0 -48 -59 -52h-206l-451 728h-85v-625h153q58 -4 58 -51q0 -48 -58 -52h-441q-58 4 -58 52zM391 846h130h2 q333 0 333 285q0 275 -349 276h-116v-561z" />
<glyph unicode="S" horiz-adv-x="1031" d="M45 130v284q9 58 56 58t55 -58v-215q101 -101 318 -102q155 0 258 106q77 81 77 186q0 130 -54 207q-41 57 -122 95q-68 25 -134 49q-73 28 -145 54q-115 51 -180 120q-87 93 -87 223q0 245 211 346q113 54 239 54q211 0 359 -98v-245q-8 -60 -57 -61q-49 0 -53 59v176 q-101 55 -246 55q-130 0 -213 -59q-97 -73 -98 -218q0 -99 81 -167q60 -54 180 -100q95 -34 189 -66q276 -112 276 -422q0 -152 -118 -273q-134 -138 -361 -141h-7q-252 0 -424 153z" />
<glyph unicode="T" horiz-adv-x="1145" d="M20 1249v267h1105v-267q-6 -57 -55 -57q-48 0 -59 55v156l-368 2v-1302h174q58 -4 58 -51q0 -48 -58 -52h-486q-57 4 -58 52q0 47 56 51h172v1302l-367 -2v-156q-10 -55 -57 -55q-48 0 -57 57z" />
<glyph unicode="U" horiz-adv-x="1425" d="M41 1462q0 50 58 54h441q58 -4 58 -54q0 -45 -58 -49h-151v-957q0 -352 316 -353q329 0 329 353v957h-148q-58 4 -59 49q0 50 59 54h440q58 -4 58 -54q0 -45 -58 -49h-151v-957q0 -214 -116 -342q-124 -136 -354 -137q-227 0 -349 141q-108 128 -108 338v957h-149 q-58 4 -58 49z" />
<glyph unicode="V" horiz-adv-x="1425" d="M31 1462q0 50 58 54h440q58 -4 59 -54q0 -45 -59 -49h-150l337 -1152l328 1152h-148q-58 4 -59 49q0 50 59 54h440q58 -4 58 -54q0 -45 -58 -49h-150l-404 -1382q-8 -53 -68 -54q-51 0 -69 54l-407 1382h-149q-58 4 -58 49z" />
<glyph unicode="W" horiz-adv-x="1830" d="M20 1462q0 50 59 52l367 2q60 -6 61 -54q0 -47 -61 -51h-128l294 -1194l246 1032q13 52 54 52q39 0 52 -52l265 -1024l275 1186h-124q-56 4 -56 51q0 50 56 52h370q60 -4 60 -52q0 -47 -60 -51h-114l-333 -1388q-4 -12 -25 -31t-47 -19q-55 0 -68 50l-251 922l-227 -922 q-4 -10 -21 -27q-26 -23 -52 -23q-29 0 -53 23q-17 14 -19 27l-354 1388h-107q-58 4 -59 51z" />
<glyph unicode="X" horiz-adv-x="1240" d="M45 52q0 49 58 51h126l334 696l-323 612h-98q-57 2 -57 49q0 50 57 54h332q57 -6 57 -54q0 -47 -57 -49h-93l254 -487l255 487h-94q-58 2 -58 49q0 50 58 54h339q60 -6 61 -54q0 -47 -61 -49h-103l-325 -612l335 -696h127q55 -2 55 -51q0 -48 -55 -52h-350q-59 4 -59 52 q0 49 59 51h81l-265 555l-264 -555h89q57 -2 57 -51q0 -48 -57 -52h-357q-58 4 -58 52z" />
<glyph unicode="Y" horiz-adv-x="1275" d="M31 1464q0 48 58 52h369q59 -4 59 -52q0 -49 -59 -51h-123l294 -608l298 608h-112q-55 2 -55 51q0 48 55 52h371q59 -4 59 -52q0 -49 -59 -51h-122l-367 -753v-557h147q58 -4 58 -51q0 -48 -56 -52h-443q-58 4 -58 52q0 47 58 51h154v557l-360 753h-108q-58 2 -58 51z " />
<glyph unicode="Z" horiz-adv-x="1050" d="M45 47q0 11 26 56l717 1293h-608v-155q-8 -57 -56 -58q-47 0 -55 58v275h851h4q48 0 49 -45q0 -15 -26 -58l-724 -1297h679v155q4 57 53 58q48 0 56 -58v-271h-912q-54 0 -54 47z" />
<glyph unicode="\" horiz-adv-x="942" d="M39 1656q-12 58 34 75q10 4 20 4q33 0 53 -35l770 -1911q14 -58 -30 -77q-10 -4 -21 -4q-34 0 -56 37z" />
<glyph unicode="^" d="M152 1169q0 8 10 17l349 276q8 9 16 9q6 0 15 -9l350 -276q12 -7 12 -17q0 -6 -6 -15l-25 -45q-8 -16 -17 -17q-4 0 -14 9l-315 249l-316 -249l-14 -7q-8 0 -17 15l-24 45zM513 1080zM513 1080z" />
<glyph unicode="_" horiz-adv-x="1770" d="M-14 54q0 49 57 58h1672q58 -8 58 -58q0 -48 -58 -58h-1672q-57 10 -57 58z" />
<glyph unicode="`" d="M267 1417q0 12 8 27q16 28 47 27q16 0 34 -9l388 -229q28 -23 28 -52q0 -14 -8 -27q-15 -27 -44 -27q-16 0 -33 8l-389 231q-31 23 -31 51zM267 1417q0 12 8 27q16 28 47 27q16 0 34 -9l388 -229q28 -23 28 -52q0 -14 -8 -27q-15 -27 -44 -27q-16 0 -33 8l-389 231 q-31 23 -31 51z" />
<glyph unicode="a" horiz-adv-x="1056" d="M83 298q14 347 592 347q0 186 -15 234q-36 110 -174 110q-225 0 -225 -174q0 -25 -19 -23h-78q-24 0 -24 19q0 97 75 172q93 97 265 97q322 0 323 -332v-645h186q57 -2 57 -51q0 -48 -57 -52h-316v114q-14 -41 -83 -85q-81 -51 -166 -52q-174 0 -262 94q-79 81 -79 209 v18zM209 290q0 -209 219 -209q95 0 174 77q71 70 71 134v239q-184 0 -276 -24q-188 -54 -188 -217z" />
<glyph unicode="b" horiz-adv-x="1127" d="M0 1464q0 50 58 52l308 -4v-575q88 145 267 145q149 0 255 -101q148 -146 148 -468q0 -273 -146 -418q-120 -118 -292 -118q-67 0 -133 33t-99 87v-14q0 -46 -23 -83h-142q33 52 32 126v1287h-177q-56 4 -56 51zM366 327q0 -97 58 -167q64 -77 168 -77q153 0 231 138 q69 118 69 308q0 201 -68.5 328.5t-199.5 127.5q-101 0 -176 -75q-82 -81 -82 -213v-370z" />
<glyph unicode="c" horiz-adv-x="1008" d="M103 533q0 277 160 431q126 120 285 120q199 0 329 -103v-168q-8 -58 -56 -58q-49 0 -53 58v118q-85 50 -222 50q-110 0 -190 -93q-106 -122 -106 -361q0 -256 112 -369q70 -71 163 -71t166 55q85 67 85 176q0 29 23 29h91q14 0 14 -25q0 -105 -67 -198 q-101 -148 -322 -149q-172 0 -282 124q-130 146 -130 434z" />
<glyph unicode="d" horiz-adv-x="1149" d="M105 513q0 325 183 474q118 95 249 95q160 0 229 -116v447h-174q-56 4 -57 51q0 50 59 52h302v-1413h186q57 -2 57 -51q0 -48 -57 -52h-316v107q-15 -60 -121 -105q-59 -25 -120 -25q-180 0 -290 118q-130 138 -130 418zM240 509q0 -140 52 -257q79 -169 245 -169 q91 0 160 82.5t69 209.5v343q-4 122 -63.5 191.5t-156.5 69.5q-114 0 -201 -102q-105 -129 -105 -368z" />
<glyph unicode="e" d="M103 533q0 275 145 427q117 120 265 120q145 0 247 -97q148 -142 148 -454h-668q0 -448 275 -448q227 0 263 219q0 29 21 29h82q16 0 17 -25q-14 -170 -130 -255q-97 -72 -251 -72q-199 0 -308 153q-105 147 -106 403zM246 641h526q0 168 -91 261q-71 75 -156 75 q-93 0 -165 -69q-93 -89 -114 -267z" />
<glyph unicode="f" horiz-adv-x="797" d="M37 52q0 47 58 51h138v848h-119q-55 6 -56 52q0 49 58 54h117v112q0 382 315 382q129 0 230 -68q13 -9 13 -22q0 -6 -3 -13l-26 -39q-13 -16 -36 -4q-31 14 -64 28q-54 18 -129 19q-81 0 -128 -70q-37 -56 -36 -116v-209h223q55 -4 55 -54q0 -48 -55 -52h-223v-848h142 q58 -4 58 -51q0 -48 -58 -52h-416q-58 4 -58 52z" />
<glyph unicode="g" horiz-adv-x="1118" d="M286 83q-149 27 -150 134q0 103 164 149q-176 92 -176 312v15q6 231 176 331q99 56 213 56q105 0 174 -36q2 0 81 -53q95 79 173 79q77 0 157 -65v-174q-46 -55 -56 -55q-49 0 -53 55v114q-24 23 -55 23h-3q-53 0 -98 -44q30 -35 51 -114q17 -67 17 -121q0 -10 -1 -20 q-6 -87 -42 -160q-78 -160 -270 -193q-56 -10 -110 -10h-79q-138 -12 -138 -83q0 -51 51 -69q62 -21 261 -22q207 0 325 -87q112 -82 111 -217q0 -144 -147.5 -237.5t-362.5 -93.5q-229 0 -361 114q-105 91 -105 197q0 220 253 275zM182 -176q0 -112 91 -171q83 -56 226 -56 q160 0 259.5 58.5t99.5 174.5q0 213 -353 213q-322 0 -323 -219zM267 701q0 -302 250 -302q116 0 179.5 81t63.5 221q0 130 -75 211q-71 75 -170 75q-101 0 -172 -75q-76 -81 -76 -211z" />
<glyph unicode="h" horiz-adv-x="1267" d="M41 1462q0 48 58 54h321v-679q75 239 326 239q170 0 237 -182q29 -77 33 -185v-606h138q60 -4 60 -51q0 -48 -58 -52h-275v645q0 143 -27 207q-41 101 -161 101q-174 0 -247 -215q-31 -89 -36 -215v-420h153q57 -4 57 -51q0 -48 -57 -52h-439q-59 4 -60 52q0 47 60 51 h153v1310h-180q-56 2 -56 49z" />
<glyph unicode="i" horiz-adv-x="640" d="M20 1001q0 49 59 56h308v-954h155q58 -2 58 -51q0 -48 -58 -52h-441q-58 6 -58 52q0 49 58 51h156v848h-180q-56 4 -57 50zM225 1413q0 39 28.5 68t68.5 29t68 -29t28 -68t-28 -68t-68 -29q-41 0 -69 29t-28 68z" />
<glyph unicode="j" horiz-adv-x="632" d="M4 -395l33 60q8 20 40 4q59 -50 158 -50q141 0 142 174v1158h-178q-58 4 -59 50q0 49 59 56h310v-1195q0 -160 -41 -239q-60 -120 -224 -120q-128 0 -230 67q-15 10 -15 22q0 6 5 13zM345 1413q0 39 28 68t69 29q40 0 69 -29t29 -68t-29 -68t-69 -29q-41 0 -69 29t-28 68 z" />
<glyph unicode="k" horiz-adv-x="1218" d="M10 1462q0 50 59 54h310v-902q110 91 407 337h-117q-58 2 -59 52q0 47 59 51h393q57 -4 57 -51q0 -50 -57 -52h-117l-339 -287l343 -561h154q60 -4 60 -51q0 -48 -58 -52h-238l-354 586l-134 -106v-377h150q58 -2 59 -51q0 -48 -59 -52h-436q-60 4 -60 52q0 49 60 51h153 v1310h-179q-56 2 -57 49zM12 1469z" />
<glyph unicode="l" horiz-adv-x="640" d="M31 1460q0 50 58 56h308v-1404h155q58 -6 58 -56q0 -48 -58 -56h-440q-57 8 -58 56q0 49 58 56h155v1293h-180q-56 8 -56 55z" />
<glyph unicode="m" horiz-adv-x="1869" d="M41 1003q0 47 58 54h311v-238q87 257 338 257q135 0 197 -105q38 -64 38 -125q0 38 65 111q103 117 278 117q182 0 249 -182q27 -77 30 -183v-606h151q60 -4 60 -51q0 -48 -58 -52h-287v645q0 135 -21 199q-37 109 -145 109h-2q-192 0 -263 -185q-33 -87 -33 -211v-454 h160q59 -4 59 -51q0 -48 -57 -52h-294l-2 645q0 149 -21 207q-39 101 -157 101q-182 0 -253 -211q-32 -98 -32 -212v-7v-420h153q57 -2 57 -51q0 -48 -57 -52h-439q-59 4 -60 52q0 49 60 51h153v848h-180q-56 4 -56 52z" />
<glyph unicode="n" horiz-adv-x="1251" d="M41 1003q0 47 58 54h311v-238q83 257 334 257q178 0 243 -180q29 -81 29 -191v-602h136q60 -4 60 -51q0 -48 -58 -52h-273v645q0 143 -25 207q-41 101 -161 101q-143 0 -221 -150q-62 -120 -64 -280v-420h153q55 -2 55 -51q0 -48 -55 -52h-439q-59 4 -60 52q0 49 60 51 h153v848h-180q-56 4 -56 52z" />
<glyph unicode="o" horiz-adv-x="1087" d="M105 533q0 275 156 427q124 120 285 120q162 0 285 -120q152 -152 152 -427q0 -288 -137 -434q-116 -122 -300 -122q-183 0 -302 122q-138 146 -139 434zM250 531q0 -260 114 -373q74 -77 178 -77q127 0 200 95q93 117 93 357q0 230 -107 350q-81 93 -184 94 q-112 0 -190 -91q-104 -116 -104 -355z" />
<glyph unicode="p" horiz-adv-x="1157" d="M4 1003q0 47 58 54h315v-180q16 68 97 126q89 67 195 67q122 0 212 -73q171 -139 171 -498q0 -335 -202 -460q-92 -57 -209 -57q-93 0 -169 49q-52 36 -95 93v-509h150q58 -4 59 -49q0 -48 -59 -52h-438q-60 4 -60 52q0 45 60 49h153v1336h-182q-56 4 -56 52zM375 627 l2 -311q2 -20 12 -61q33 -83 110 -129q64 -39 136 -39q147 0 221 128q60 104 60 297v13q0 174 -60 296q-68 143 -207 143q-101 0 -179.5 -79.5t-86.5 -181.5q-4 -50 -8 -76z" />
<glyph unicode="q" horiz-adv-x="1139" d="M103 505q0 325 162 472q105 95 238 95q186 0 277 -160v21q0 28 13.5 71.5t23.5 54.5h140q-14 -20 -28.5 -80.5t-14.5 -95.5v-1266h154q59 -4 59 -49q0 -48 -59 -52h-439q-57 4 -58 52q0 45 58 49h151v519q-12 -20 -28 -37q-37 -41 -75 -64q-95 -51 -172 -51h-15 q-104 0 -208 78q-179 135 -179 443zM242 511q0 -144 48 -252q71 -162 229 -162q91 0 170 69q91 78 91 192v304q0 151 -93 236q-75 68 -170 68q-153 0 -223 -163q-52 -118 -52 -292z" />
<glyph unicode="r" horiz-adv-x="900" d="M41 1003q0 47 58 54h311v-222q71 241 295 241q122 0 181 -65v-194q-46 -57 -57 -57q-51 0 -53 57v126q-46 25 -82 25h-3q-195 0 -257 -263q-24 -96 -24 -231v-30v-341h176q57 -2 57 -51q0 -48 -57 -52h-462q-59 4 -60 52q0 49 60 51h155v848h-182q-56 4 -56 52z" />
<glyph unicode="s" horiz-adv-x="831" d="M85 85v188q8 57 55 58q50 0 55 -58v-129q18 -18 72 -37q63 -24 127 -24h5q95 0 157 51.5t62 124.5q0 103 -111 175q-12 6 -151 69q-104 45 -129 64q-110 82 -109 223q0 180 166 254q87 38 176 38q144 0 266 -81v-174q-8 -57 -55 -57q-50 0 -55 57v114q-89 40 -154 40 q-73 0 -133 -40q-77 -51 -77 -147q0 -97 108 -155q94 -39 190 -78q208 -97 208 -306q0 -115 -113 -201q-97 -77 -240 -79h-7q-204 0 -313 110z" />
<glyph unicode="t" horiz-adv-x="702" d="M10 1003q0 49 59 54h119v275q0 29 25 29h83q25 0 24 -27v-277h261q57 -4 58 -54q0 -48 -55 -52h-264v-655q0 -85 9 -114q28 -91 127 -91q103 0 162 37q23 14 29 -4l34 -49q3 -6 3 -12q0 -12 -13 -26q-77 -59 -231 -60q-175 0 -231 135q-22 55 -22 114q0 13 1 26v699h-121 q-57 6 -57 52z" />
<glyph unicode="u" horiz-adv-x="1230" d="M4 1003q0 47 60 54h296v-647q0 -124 19 -183q43 -126 171 -126q197 0 253 203q18 67 18 225v422h-166q-57 4 -57 52q0 47 60 54h293l2 -954h178q59 -4 59 -51q0 -50 -59 -52h-310v142q-94 -162 -288 -162h-2q-190 0 -264 174q-40 90 -40 191v606h-163q-60 4 -60 52z" />
<glyph unicode="v" horiz-adv-x="1234" d="M31 1003q0 47 58 51h361q60 -4 61 -51q0 -50 -61 -52h-115l273 -781l278 781h-106q-56 2 -56 52q0 47 56 51h364q60 -4 60 -51q0 -50 -60 -52h-122l-347 -928q-26 -49 -69 -50q-45 0 -69 50l-340 928h-108q-58 2 -58 52z" />
<glyph unicode="w" horiz-adv-x="1770" d="M49 1003q0 47 58 51h369q59 -4 59 -51q0 -50 -59 -52h-129l237 -779l237 748q16 52 52 53q33 0 49 -53l230 -748l257 779h-120q-56 2 -56 52q0 47 56 51h369q63 -4 63 -51q0 -50 -63 -52h-121l-319 -928q-18 -49 -68 -50q-53 0 -68 50l-209 662l-224 -662 q-16 -49 -68 -50q-54 0 -68 50l-292 928h-114q-58 2 -58 52z" />
<glyph unicode="x" horiz-adv-x="1186" d="M43 52q0 49 58 51h120l300 445l-300 405h-93q-57 2 -57 50q0 49 57 54h325q58 -6 58 -54t-58 -50h-91l234 -314l229 314h-89q-57 2 -57 50q0 49 57 54h332q59 -6 59 -54t-59 -50h-100l-302 -405l302 -445h120q55 -2 56 -51q0 -48 -56 -52h-338q-59 4 -59 52q0 49 59 51 h75l-229 350l-234 -350h82q58 -2 59 -51q0 -48 -59 -52h-343q-58 4 -58 52z" />
<glyph unicode="y" horiz-adv-x="1222" d="M25 1003q0 47 58 51h367q60 -4 61 -51q0 -50 -61 -52h-121l277 -775l273 775h-107q-56 2 -56 52q0 47 56 51h369q61 -4 61 -51q0 -50 -61 -52h-125l-430 -1210q-32 -101 -102 -167q-77 -71 -182 -71q-126 0 -223 65q-23 14 -10 35l32 58q6 12 17 12q8 0 22 -8 q77 -46 176 -46q107 0 154 152l70 229l-350 951h-107q-58 2 -58 52z" />
<glyph unicode="z" horiz-adv-x="926" d="M62 49q0 19 31 54l592 834h-468v-155q-8 -58 -55 -58q-48 0 -57 58v275h704q56 -1 56 -48q0 -16 -30 -56l-589 -837h502v145q4 57 55 57q47 0 55 -57v-261h-736q-59 2 -60 49z" />
<glyph unicode="&#xab;" horiz-adv-x="1064" d="M62 590q0 10 11 20l347 436q12 16 20 16l20 -8l55 -30q18 -10 18 -21q0 -2 -8 -18l-312 -395l312 -393q10 -12 10 -19q0 -8 -20 -20l-55 -32q-11 -6 -20 -6q-12 0 -20 14l-347 437q-10 10 -11 19zM488 590q0 10 11 20l347 436q12 16 21 16l19 -8l55 -30q19 -10 19 -21 q0 -2 -9 -18l-312 -395l312 -393q11 -12 11 -19q0 -8 -21 -20l-55 -32q-10 -6 -19 -6q-13 0 -21 14l-347 437q-10 10 -11 19z" />
<glyph unicode="&#xad;" horiz-adv-x="825" d="M83 584q0 49 57 57h545q57 -8 57 -57q0 -48 -57 -59h-545q-57 10 -57 59z" />
<glyph unicode="&#xb4;" d="M267 1181q0 29 27 52l389 229q16 9 33 9q33 0 48 -27q8 -14 8 -27q0 -29 -32 -51l-389 -231q-16 -8 -33 -8q-29 0 -43 27q-8 13 -8 27zM267 1181q0 29 27 52l389 229q16 9 33 9q33 0 48 -27q8 -14 8 -27q0 -29 -32 -51l-389 -231q-16 -8 -33 -8q-29 0 -43 27q-8 13 -8 27 z" />
<glyph unicode="&#xbb;" horiz-adv-x="1064" d="M103 178q0 6 11 19l312 393l-312 395l-9 18q0 10 19 21l56 30q18 6 19 8q8 0 20 -16l348 -436q10 -10 10 -20q0 -8 -10 -19l-348 -437q-8 -14 -20 -14q-8 0 -19 6l-56 32q-20 12 -21 20zM529 178q0 6 11 19l312 393l-312 395l-9 18q0 10 19 21l56 30q18 6 18 8 q8 0 21 -16l348 -436q10 -10 10 -20q0 -8 -10 -19l-348 -437q-8 -14 -21 -14q-8 0 -18 6l-56 32q-20 12 -21 20z" />
<glyph unicode="&#xc4;" horiz-adv-x="1532" d="M45 52q0 47 56 51h151l425 1389q20 51 63 51q58 0 69 -47l474 -1393h148q57 -4 57 -51q0 -48 -59 -52h-440q-58 4 -58 52q0 47 58 51h159l-122 361h-529l-112 -361h159q58 -4 58 -51q0 -48 -58 -52h-441q-58 4 -58 52zM432 1676q0 37 26 63.5t65 26.5q38 0 63.5 -26.5 t25.5 -63.5q0 -38 -25.5 -64.5t-63.5 -26.5q-39 0 -65 26.5t-26 64.5zM521 573h472l-251 716zM865 1676q0 37 25.5 63.5t64.5 26.5q38 0 63.5 -26.5t25.5 -63.5q0 -38 -25.5 -64.5t-63.5 -26.5q-39 0 -64.5 26.5t-25.5 64.5z" />
<glyph unicode="&#xd6;" horiz-adv-x="1277" d="M62 755q0 356 161.5 574t415.5 218q241 0 397 -186q180 -213 180 -606q0 -357 -156 -570.5t-421 -213.5q-268 0 -422.5 212t-154.5 572zM213 766q0 -330 136 -516q119 -159 288 -159q174 0 292 159q135 184 135 516q0 329 -135 507q-114 153 -290 152q-175 0 -292 -152 q-134 -178 -134 -507zM335 1727q0 37 26 64t65 27q38 0 63.5 -27t25.5 -64t-25.5 -64t-63.5 -27q-39 0 -65 27t-26 64zM768 1727q0 37 25.5 64t64.5 27q38 0 63.5 -27t25.5 -64t-25.5 -64t-63.5 -27q-39 0 -64.5 27t-25.5 64z" />
<glyph unicode="&#xdc;" horiz-adv-x="1425" d="M41 1462q0 50 58 54h441q58 -4 58 -54q0 -45 -58 -49h-151v-957q0 -352 316 -353q329 0 329 353v957h-148q-58 4 -59 49q0 50 59 54h440q58 -4 58 -54q0 -45 -58 -49h-151v-957q0 -214 -116 -342q-124 -136 -354 -137q-229 0 -349 141q-108 128 -108 338v957h-149 q-58 4 -58 49zM401 1676q0 37 26 63.5t65 26.5q37 0 63 -26.5t26 -63.5q0 -38 -26 -64.5t-63 -26.5q-40 0 -65.5 26.5t-25.5 64.5zM833 1676q0 37 26.5 63.5t64.5 26.5t64 -26.5t26 -63.5q0 -38 -26 -64.5t-64 -26.5q-39 0 -65 26.5t-26 64.5z" />
<glyph unicode="&#xe0;" horiz-adv-x="1056" d="M83 298q14 347 592 347q0 186 -15 234q-36 110 -174 110q-225 0 -225 -174q0 -25 -19 -23h-78q-24 0 -24 19q0 97 75 172q93 97 265 97q322 0 323 -332v-645h186q57 -2 57 -51q0 -48 -57 -52h-316v114q-14 -41 -83 -85q-81 -51 -166 -52q-174 0 -262 94q-85 87 -79 227z M209 290q0 -209 219 -209q95 0 174 77q71 70 71 134v239q-184 0 -276 -24q-188 -54 -188 -217zM275 1417q0 12 9 27q16 28 47 27q16 0 33 -9l388 -229q28 -23 28 -52q0 -14 -8 -27q-14 -27 -44 -27q-16 0 -33 8l-389 231q-31 23 -31 51z" />
<glyph unicode="&#xe1;" horiz-adv-x="1056" d="M83 298q14 347 592 347q0 186 -15 234q-36 110 -174 110q-225 0 -225 -174q0 -25 -19 -23h-78q-24 0 -24 19q0 97 75 172q93 97 265 97q322 0 323 -332v-645h186q57 -2 57 -51q0 -48 -57 -52h-316v114q-14 -41 -83 -85q-81 -51 -166 -52q-174 0 -262 94q-85 87 -79 227z M209 290q0 -209 219 -209q95 0 174 77q71 70 71 134v239q-184 0 -276 -24q-188 -54 -188 -217zM248 1181q0 29 27 52l389 229q16 9 33 9q31 0 47 -27q8 -14 8 -27q0 -29 -30 -51l-389 -231q-16 -8 -33 -8q-29 0 -43 27q-9 13 -9 27z" />
<glyph unicode="&#xe2;" horiz-adv-x="1056" d="M83 298q14 347 592 347q0 186 -15 234q-36 110 -174 110q-225 0 -225 -174q0 -25 -19 -23h-78q-24 0 -24 19q0 97 75 172q93 97 265 97q322 0 323 -332v-645h186q57 -2 57 -51q0 -48 -57 -52h-316v114q-14 -41 -83 -85q-81 -51 -166 -52q-174 0 -262 94q-85 87 -79 227z M99 1169q0 8 11 17l350 276q8 9 16 9q6 0 14 -9l349 -276q13 -7 13 -17q0 -6 -6 -15l-25 -45q-8 -16 -16 -17q-4 0 -15 9l-314 249l-316 -249q-13 -6 -16 -7q-8 0 -16 15l-25 45zM209 290q0 -209 219 -209q95 0 174 77q71 70 71 134v239q-184 0 -276 -24q-188 -54 -188 -217 z" />
<glyph unicode="&#xe4;" horiz-adv-x="1056" d="M83 298q14 347 602 347q0 186 -14 234q-36 110 -174 110q-225 0 -226 -174q0 -25 -19 -23h-78q-24 0 -22 19q0 97 73 172q93 97 265 97q322 0 323 -332v-645h186q58 -2 58 -51q0 -48 -58 -52h-316v91q-25 -42 -89 -75q-75 -39 -160 -39q-107 0 -186 33q-173 75 -165 288z M209 290q0 -209 229 -209q97 0 172 65q73 60 73 133v252q-188 0 -280 -24q-195 -54 -194 -217zM213 1305q0 37 26 64t65 27q37 0 63 -27t26 -64t-26 -64t-63 -27q-39 0 -65 27t-26 64zM604 1305q0 37 27 64t64 27t63 -27t26 -64t-26 -64t-63 -27t-64 27t-27 64z" />
<glyph unicode="&#xe7;" horiz-adv-x="1008" d="M103 533q0 277 160 431q126 120 285 120q199 0 329 -103v-168q-8 -58 -56 -58q-49 0 -53 58v118q-85 50 -222 50q-110 0 -190 -93q-106 -122 -106 -361q0 -256 112 -369q70 -71 163 -71t166 55q85 67 85 176q0 29 23 29h91q14 0 14 -25q0 -95 -56 -184 q-86 -140 -273 -158l-12 -3q-2 -25 -4 -84q153 -14 153 -128q0 -67 -57 -104q-47 -34 -115 -34q-124 0 -124 32q0 4 2 8v8l6 37q4 10 10 11q-4 0 31.5 -8.5t76.5 -8.5q83 0 82 56q0 43 -80 52.5t-80 33.5q0 -2 2 28l6 101q-158 16 -255 141q-114 147 -114 415z" />
<glyph unicode="&#xe8;" d="M103 533q0 275 145 427q117 120 265 120q145 0 247 -97q148 -142 148 -454h-668q0 -448 275 -448q227 0 263 219q0 29 21 29h82q16 0 17 -25q-14 -170 -130 -255q-97 -72 -251 -72q-199 0 -308 153q-105 147 -106 403zM246 641h526q0 168 -91 261q-71 75 -156 75 q-93 0 -165 -69q-93 -89 -114 -267zM267 1417q0 12 8 27q16 28 47 27q16 0 34 -9l388 -229q28 -23 28 -52q0 -14 -8 -27q-15 -27 -44 -27q-16 0 -33 8l-389 231q-31 23 -31 51z" />
<glyph unicode="&#xe9;" d="M103 533q0 275 145 427q117 120 265 120q145 0 247 -97q148 -142 148 -454h-668q0 -448 275 -448q227 0 263 219q0 29 21 29h82q16 0 17 -25q-14 -170 -130 -255q-97 -72 -251 -72q-199 0 -308 153q-105 147 -106 403zM246 641h526q0 168 -91 261q-71 75 -156 75 q-93 0 -165 -69q-93 -89 -114 -267zM248 1181q0 29 27 52l389 229q16 9 33 9q31 0 47 -27q8 -14 8 -27q0 -29 -30 -51l-389 -231q-16 -8 -33 -8q-29 0 -43 27q-9 13 -9 27z" />
<glyph unicode="&#xea;" d="M103 533q0 275 145 427q117 120 265 120q145 0 247 -97q148 -142 148 -454h-668q0 -448 275 -448q227 0 263 219q0 29 21 29h82q16 0 17 -25q-14 -170 -130 -255q-97 -72 -251 -72q-199 0 -308 153q-105 147 -106 403zM152 1169q0 8 10 17l349 276q8 9 16 9q6 0 15 -9 l350 -276q12 -7 12 -17q0 -6 -6 -15l-25 -45q-8 -16 -17 -17q-4 0 -14 9l-315 249l-316 -249l-14 -7q-8 0 -17 15l-24 45zM246 641h526q0 168 -91 261q-71 75 -156 75q-93 0 -165 -69q-93 -89 -114 -267z" />
<glyph unicode="&#xec;" d="M20 1001q0 49 59 56h308v-954h155q58 -2 58 -51q0 -48 -58 -52h-441q-58 6 -58 52q0 49 58 51h156v848h-180q-56 4 -57 50zM56 1439q0 12 8 28q16 27 48 27q16 0 32 -9l251 -143q27 -23 27 -51q0 -14 -8 -27q-14 -28 -43 -27q-16 0 -34 8l-250 143q-31 23 -31 51z" />
<glyph unicode="&#xed;" d="M20 1001q0 49 59 56h308v-954h155q58 -2 58 -51q0 -48 -58 -52h-441q-58 6 -58 52q0 49 58 51h156v848h-180q-56 4 -57 50zM93 1291q0 29 27 51l251 143q16 8 32 9q31 0 47 -27q9 -15 10 -28q0 -29 -32 -51l-250 -143q-16 -8 -34 -8q-29 0 -43 27q-8 12 -8 27z" />
<glyph unicode="&#xee;" />
<glyph unicode="&#xf2;" horiz-adv-x="1087" d="M105 533q0 275 156 427q124 120 285 120q162 0 285 -120q152 -152 152 -427q0 -288 -137 -434q-116 -122 -300 -122q-183 0 -302 122q-138 146 -139 434zM250 531q0 -260 114 -373q74 -77 178 -77q127 0 200 95q93 117 93 357q0 230 -107 350q-81 93 -184 94 q-112 0 -190 -91q-104 -116 -104 -355zM275 1417q0 12 9 27q16 28 47 27q16 0 33 -9l388 -229q28 -23 28 -52q0 -14 -8 -27q-14 -27 -44 -27q-16 0 -33 8l-389 231q-31 23 -31 51z" />
<glyph unicode="&#xf3;" horiz-adv-x="1087" d="M105 533q0 275 156 427q124 120 285 120q162 0 285 -120q152 -152 152 -427q0 -288 -137 -434q-116 -122 -300 -122q-183 0 -302 122q-138 146 -139 434zM248 1181q0 29 27 52l389 229q16 9 33 9q31 0 47 -27q8 -14 8 -27q0 -29 -30 -51l-389 -231q-16 -8 -33 -8 q-29 0 -43 27q-9 13 -9 27zM250 531q0 -260 114 -373q74 -77 178 -77q127 0 200 95q93 117 93 357q0 230 -107 350q-81 93 -184 94q-112 0 -190 -91q-104 -116 -104 -355z" />
<glyph unicode="&#xf4;" horiz-adv-x="1087" d="M105 533q0 275 156 427q124 120 285 120q162 0 285 -120q152 -152 152 -427q0 -288 -137 -434q-116 -122 -300 -122q-183 0 -302 122q-138 146 -139 434zM186 1169q0 8 11 17l349 276q8 9 17 9q6 0 14 -9l350 -276q12 -7 12 -17q0 -6 -6 -15l-25 -45q-8 -16 -16 -17 q-4 0 -15 9l-314 249l-317 -249q-12 -6 -15 -7q-8 0 -16 15l-25 45zM250 531q0 -260 114 -373q74 -77 178 -77q127 0 200 95q93 117 93 357q0 230 -107 350q-81 93 -184 94q-112 0 -190 -91q-104 -116 -104 -355z" />
<glyph unicode="&#xf6;" horiz-adv-x="1087" d="M105 533q0 275 160 427q126 120 281 120q158 0 281 -120q156 -152 156 -427q0 -288 -137 -434q-116 -122 -300 -122q-183 0 -302 122q-138 146 -139 434zM248 531q0 -258 114 -373q76 -77 180 -77q127 0 202 95q93 117 93 357q0 230 -107 350q-83 93 -186 94 q-112 0 -190 -91q-106 -116 -106 -355zM255 1305q0 37 25.5 64t64.5 27q38 0 63.5 -27t25.5 -64t-25.5 -64t-63.5 -27q-39 0 -64.5 27t-25.5 64zM645 1305q0 37 27 64t64 27q38 0 63.5 -27t25.5 -64t-25.5 -64t-63.5 -27q-37 0 -64 27t-27 64z" />
<glyph unicode="&#xf9;" horiz-adv-x="1230" d="M4 1003q0 47 60 54h296v-647q0 -124 19 -183q43 -126 171 -126q197 0 253 203q18 67 18 225v422h-166q-57 4 -57 52q0 47 60 54h293l2 -954h178q59 -4 59 -51q0 -50 -59 -52h-310v142q-95 -163 -290 -162q-190 0 -264 174q-40 90 -40 191v606h-163q-60 4 -60 52z M267 1417q0 12 8 27q16 28 47 27q16 0 34 -9l388 -229q28 -23 28 -52q0 -14 -8 -27q-15 -27 -44 -27q-16 0 -33 8l-389 231q-31 23 -31 51z" />
<glyph unicode="&#xfa;" horiz-adv-x="1230" d="M4 1003q0 47 60 54h296v-647q0 -124 19 -183q43 -126 171 -126q197 0 253 203q18 67 18 225v422h-166q-57 4 -57 52q0 47 60 54h293l2 -954h178q59 -4 59 -51q0 -50 -59 -52h-310v142q-95 -163 -290 -162q-190 0 -264 174q-40 90 -40 191v606h-163q-60 4 -60 52z M248 1181q0 29 27 52l389 229q16 9 33 9q31 0 47 -27q8 -14 8 -27q0 -29 -30 -51l-389 -231q-16 -8 -33 -8q-29 0 -43 27q-9 13 -9 27z" />
<glyph unicode="&#xfb;" horiz-adv-x="1230" d="M4 1003q0 47 60 54h296v-647q0 -124 19 -183q43 -126 171 -126q197 0 253 203q18 67 18 225v422h-166q-57 4 -57 52q0 47 60 54h293l2 -954h178q59 -4 59 -51q0 -50 -59 -52h-310v142q-95 -163 -290 -162q-190 0 -264 174q-40 90 -40 191v606h-163q-60 4 -60 52z M152 1169q0 8 10 17l349 276q8 9 16 9q6 0 15 -9l350 -276q12 -7 12 -17q0 -6 -6 -15l-25 -45q-8 -16 -17 -17q-4 0 -14 9l-315 249l-316 -249l-14 -7q-8 0 -17 15l-24 45z" />
<glyph unicode="&#xfc;" horiz-adv-x="1222" d="M4 1003q0 47 60 54h296v-647q0 -128 17 -183q41 -126 169 -126q269 0 269 361v45q-2 23 -2 22v422h-166q-57 4 -57 52q0 47 59 54h294l2 -954h178q58 -4 58 -51q0 -50 -58 -52h-310v142q-93 -163 -288 -162q-188 0 -262 176q-36 88 -36 193v602h-163q-60 4 -60 52z M279 1305q0 37 26 64t66 27q37 0 63 -27t26 -64t-26.5 -64t-62.5 -27q-40 0 -66 27t-26 64zM671 1305q0 37 26.5 64t64.5 27q37 0 62.5 -27t25.5 -64t-25.5 -64t-62.5 -27q-38 0 -64.5 27t-26.5 64z" />
<glyph unicode="&#x2000;" horiz-adv-x="909" />
<glyph unicode="&#x2001;" horiz-adv-x="1818" />
<glyph unicode="&#x2002;" horiz-adv-x="909" />
<glyph unicode="&#x2003;" horiz-adv-x="1818" />
<glyph unicode="&#x2004;" horiz-adv-x="606" />
<glyph unicode="&#x2005;" horiz-adv-x="454" />
<glyph unicode="&#x2006;" horiz-adv-x="303" />
<glyph unicode="&#x2007;" horiz-adv-x="303" />
<glyph unicode="&#x2008;" horiz-adv-x="227" />
<glyph unicode="&#x2009;" horiz-adv-x="363" />
<glyph unicode="&#x200a;" horiz-adv-x="101" />
<glyph unicode="&#x2010;" horiz-adv-x="825" d="M83 584q0 49 57 57h545q57 -8 57 -57q0 -48 -57 -59h-545q-57 10 -57 59z" />
<glyph unicode="&#x2011;" horiz-adv-x="825" d="M83 584q0 49 57 57h545q57 -8 57 -57q0 -48 -57 -59h-545q-57 10 -57 59z" />
<glyph unicode="&#x2012;" horiz-adv-x="825" d="M83 584q0 49 57 57h545q57 -8 57 -57q0 -48 -57 -59h-545q-57 10 -57 59z" />
<glyph unicode="&#x2013;" horiz-adv-x="1034" d="M29 584q0 49 58 57h860q58 -8 58 -57q0 -48 -58 -59h-860q-58 10 -58 59z" />
<glyph unicode="&#x2014;" horiz-adv-x="2068" d="M134 584q0 49 58 57h1671q58 -8 59 -57q0 -48 -59 -59h-1671q-58 10 -58 59z" />
<glyph unicode="&#x2022;" horiz-adv-x="754" d="M156 577q0 93 66 158.5t157 65.5q93 0 157 -65.5t64 -158.5t-64 -158t-157 -65q-91 0 -157 65t-66 158z" />
<glyph unicode="&#x2026;" horiz-adv-x="2104" d="M207 116q0 52 36 88t88 36t88.5 -36t36.5 -88q0 -51 -36.5 -87.5t-88.5 -36.5q-51 0 -87.5 36t-36.5 88zM929 116q0 52 36 88t87 36q52 0 88.5 -36t36.5 -88q0 -51 -36 -87.5t-89 -36.5q-51 0 -87 36t-36 88zM1650 116q0 52 37.5 88t87.5 36q51 0 87.5 -36t36.5 -88 q0 -51 -36.5 -87.5t-87.5 -36.5q-50 0 -87.5 36t-37.5 88z" />
<glyph unicode="&#x202f;" horiz-adv-x="363" />
<glyph unicode="&#x205f;" horiz-adv-x="454" />
<glyph unicode="&#x25fc;" horiz-adv-x="1054" d="M0 0v1054h1054v-1054h-1054z" />
</font>
</defs>
</svg>
